<svg width="59" height="19" viewBox="0 0 59 19" fill="none" xmlns="http://www.w3.org/2000/svg">
<path fill-rule="evenodd" clip-rule="evenodd" d="M17.0289 3H6.97107C3.1368 3 0 6.37505 0 10.5C0 14.6249 3.13719 18 6.97107 18H17.0289C20.8628 18.0002 24 14.6249 24 10.5C24 6.37505 20.863 3 17.0289 3ZM7.16697 4.6071C4.00596 4.6071 1.44242 7.28969 1.44242 10.5975C1.44242 13.9053 4.00615 16.5877 7.16697 16.5877C10.3278 16.5877 12.8915 13.9051 12.8915 10.5975C12.8915 7.28989 10.328 4.6071 7.16697 4.6071Z" fill="white" fill-opacity="0.85"/>
<path d="M30.7227 8V0.890625H32.8223C33.4505 0.890625 34.0072 1.0306 34.4922 1.31055C34.9805 1.59049 35.3581 1.98763 35.625 2.50195C35.8919 3.01628 36.0254 3.60547 36.0254 4.26953V4.62598C36.0254 5.2998 35.8903 5.89225 35.6201 6.40332C35.3532 6.91439 34.9707 7.30827 34.4727 7.58496C33.9779 7.86165 33.4098 8 32.7686 8H30.7227ZM31.958 1.88672V7.01367H32.7637C33.4115 7.01367 33.9079 6.81185 34.2529 6.4082C34.6012 6.0013 34.7786 5.41862 34.7852 4.66016V4.26465C34.7852 3.49316 34.6175 2.90397 34.2822 2.49707C33.9469 2.09017 33.4603 1.88672 32.8223 1.88672H31.958ZM41.5279 6.34473H38.774L38.1979 8H36.9137L39.5992 0.890625H40.7076L43.398 8H42.109L41.5279 6.34473ZM39.1207 5.34863H41.1813L40.151 2.39941L39.1207 5.34863ZM47.2209 5.26074H45.8439V8H44.6086V0.890625H47.1086C47.9289 0.890625 48.562 1.07454 49.008 1.44238C49.454 1.81022 49.677 2.34245 49.677 3.03906C49.677 3.51432 49.5614 3.91309 49.3303 4.23535C49.1024 4.55436 48.7834 4.80013 48.3732 4.97266L49.9699 7.93652V8H48.6467L47.2209 5.26074ZM45.8439 4.26953H47.1135C47.5301 4.26953 47.8557 4.16536 48.09 3.95703C48.3244 3.74544 48.4416 3.45736 48.4416 3.09277C48.4416 2.71191 48.3326 2.41732 48.1145 2.20898C47.8996 2.00065 47.5773 1.89323 47.1477 1.88672H45.8439V4.26953ZM53.2898 4.92871L52.4842 5.7832V8H51.2488V0.890625H52.4842V4.22559L53.1678 3.38086L55.2479 0.890625H56.742L54.1004 4.04004L56.8934 8H55.4285L53.2898 4.92871ZM32.3242 10.8906L34.375 16.3398L36.4209 10.8906H38.0176V18H36.7871V15.6562L36.9092 12.5215L34.8096 18H33.9258L31.8311 12.5264L31.9531 15.6562V18H30.7227V10.8906H32.3242ZM45.5562 14.6309C45.5562 15.3275 45.4358 15.9395 45.1949 16.4668C44.954 16.9909 44.609 17.3945 44.1598 17.6777C43.7138 17.9577 43.1995 18.0977 42.6168 18.0977C42.0406 18.0977 41.5263 17.9577 41.0738 17.6777C40.6246 17.3945 40.2763 16.9925 40.0289 16.4717C39.7848 15.9508 39.6611 15.3503 39.6578 14.6699V14.2695C39.6578 13.5762 39.7799 12.9642 40.024 12.4336C40.2714 11.903 40.6181 11.4977 41.0641 11.2178C41.5133 10.9346 42.0276 10.793 42.607 10.793C43.1865 10.793 43.6992 10.9329 44.1451 11.2129C44.5943 11.4896 44.941 11.89 45.1852 12.4141C45.4293 12.9349 45.553 13.542 45.5562 14.2354V14.6309ZM44.3209 14.2598C44.3209 13.472 44.1712 12.8682 43.8717 12.4482C43.5755 12.0283 43.1539 11.8184 42.607 11.8184C42.0732 11.8184 41.6549 12.0283 41.3521 12.4482C41.0527 12.8649 40.8997 13.4557 40.8932 14.2207V14.6309C40.8932 15.4121 41.0445 16.016 41.3473 16.4424C41.6533 16.8688 42.0764 17.082 42.6168 17.082C43.1637 17.082 43.5836 16.8737 43.8766 16.457C44.1728 16.0404 44.3209 15.4316 44.3209 14.6309V14.2598ZM47.1867 18V10.8906H49.2863C49.9146 10.8906 50.4712 11.0306 50.9562 11.3105C51.4445 11.5905 51.8221 11.9876 52.0891 12.502C52.356 13.0163 52.4895 13.6055 52.4895 14.2695V14.626C52.4895 15.2998 52.3544 15.8923 52.0842 16.4033C51.8173 16.9144 51.4348 17.3083 50.9367 17.585C50.4419 17.8617 49.8739 18 49.2326 18H47.1867ZM48.4221 11.8867V17.0137H49.2277C49.8755 17.0137 50.3719 16.8118 50.717 16.4082C51.0653 16.0013 51.2427 15.4186 51.2492 14.6602V14.2646C51.2492 13.4932 51.0816 12.904 50.7463 12.4971C50.411 12.0902 49.9243 11.8867 49.2863 11.8867H48.4221ZM58.2752 14.8262H55.3553V17.0137H58.7684V18H54.1199V10.8906H58.7342V11.8867H55.3553V13.8496H58.2752V14.8262Z" fill="white" fill-opacity="0.85"/>
</svg>
