<svg width="60" height="19" viewBox="0 0 60 19" fill="none" xmlns="http://www.w3.org/2000/svg">
<path fill-rule="evenodd" clip-rule="evenodd" d="M17.0289 3H6.97107C3.1368 3 0 6.37505 0 10.5C0 14.6249 3.13719 18 6.97107 18H17.0289C20.8628 18.0002 24 14.6249 24 10.5C24 6.37505 20.863 3 17.0289 3ZM7.16697 4.6071C4.00596 4.6071 1.44242 7.28969 1.44242 10.5975C1.44242 13.9053 4.00615 16.5877 7.16697 16.5877C10.3278 16.5877 12.8915 13.9051 12.8915 10.5975C12.8915 7.28989 10.328 4.6071 7.16697 4.6071Z" fill="#7A7AD1"/>
<path d="M31.958 7.01367H35.1855V8H30.7227V0.890625H31.958V7.01367ZM37.8365 8H36.6061V0.890625H37.8365V8ZM45.2043 7.07715C44.9471 7.41243 44.5907 7.66634 44.135 7.83887C43.6792 8.01139 43.1617 8.09766 42.5822 8.09766C41.9865 8.09766 41.4592 7.96257 41.0002 7.69238C40.5412 7.4222 40.1864 7.03646 39.9357 6.53516C39.6883 6.0306 39.5598 5.44303 39.55 4.77246V4.21582C39.55 3.1416 39.8072 2.30339 40.3215 1.70117C40.8358 1.0957 41.5536 0.792969 42.4748 0.792969C43.2658 0.792969 43.8941 0.988281 44.3596 1.37891C44.8251 1.76953 45.105 2.33268 45.1994 3.06836H43.9885C43.8518 2.21224 43.3553 1.78418 42.4992 1.78418C41.9458 1.78418 41.5243 1.98438 41.2346 2.38477C40.9481 2.7819 40.8 3.36621 40.7902 4.1377V4.68457C40.7902 5.4528 40.9514 6.05013 41.2736 6.47656C41.5992 6.89974 42.05 7.11133 42.6262 7.11133C43.2577 7.11133 43.7069 6.9681 43.9738 6.68164V5.29004H42.509V4.35254H45.2043V7.07715ZM52.6063 8H51.3758V4.84082H48.1971V8H46.9617V0.890625H48.1971V3.84961H51.3758V0.890625H52.6063V8ZM59.4613 1.88672H57.2445V8H56.0189V1.88672H53.8217V0.890625H59.4613V1.88672ZM32.3242 10.8906L34.375 16.3398L36.4209 10.8906H38.0176V18H36.7871V15.6562L36.9092 12.5215L34.8096 18H33.9258L31.8311 12.5264L31.9531 15.6562V18H30.7227V10.8906H32.3242ZM45.5562 14.6309C45.5562 15.3275 45.4358 15.9395 45.1949 16.4668C44.954 16.9909 44.609 17.3945 44.1598 17.6777C43.7138 17.9577 43.1995 18.0977 42.6168 18.0977C42.0406 18.0977 41.5263 17.9577 41.0738 17.6777C40.6246 17.3945 40.2763 16.9925 40.0289 16.4717C39.7848 15.9508 39.6611 15.3503 39.6578 14.6699V14.2695C39.6578 13.5762 39.7799 12.9642 40.024 12.4336C40.2714 11.903 40.6181 11.4977 41.0641 11.2178C41.5133 10.9346 42.0276 10.793 42.607 10.793C43.1865 10.793 43.6992 10.9329 44.1451 11.2129C44.5943 11.4896 44.941 11.89 45.1852 12.4141C45.4293 12.9349 45.553 13.542 45.5562 14.2354V14.6309ZM44.3209 14.2598C44.3209 13.472 44.1712 12.8682 43.8717 12.4482C43.5755 12.0283 43.1539 11.8184 42.607 11.8184C42.0732 11.8184 41.6549 12.0283 41.3521 12.4482C41.0527 12.8649 40.8997 13.4557 40.8932 14.2207V14.6309C40.8932 15.4121 41.0445 16.016 41.3473 16.4424C41.6533 16.8688 42.0764 17.082 42.6168 17.082C43.1637 17.082 43.5836 16.8737 43.8766 16.457C44.1728 16.0404 44.3209 15.4316 44.3209 14.6309V14.2598ZM47.1867 18V10.8906H49.2863C49.9146 10.8906 50.4712 11.0306 50.9562 11.3105C51.4445 11.5905 51.8221 11.9876 52.0891 12.502C52.356 13.0163 52.4895 13.6055 52.4895 14.2695V14.626C52.4895 15.2998 52.3544 15.8923 52.0842 16.4033C51.8173 16.9144 51.4348 17.3083 50.9367 17.585C50.4419 17.8617 49.8739 18 49.2326 18H47.1867ZM48.4221 11.8867V17.0137H49.2277C49.8755 17.0137 50.3719 16.8118 50.717 16.4082C51.0653 16.0013 51.2427 15.4186 51.2492 14.6602V14.2646C51.2492 13.4932 51.0816 12.904 50.7463 12.4971C50.411 12.0902 49.9243 11.8867 49.2863 11.8867H48.4221ZM58.2752 14.8262H55.3553V17.0137H58.7684V18H54.1199V10.8906H58.7342V11.8867H55.3553V13.8496H58.2752V14.8262Z" fill="#7A7AD1"/>
</svg>
