<svg width="22" height="22" viewBox="0 0 22 22" fill="none" xmlns="http://www.w3.org/2000/svg">
<path d="M19.3298 15.7204C19.3614 15.7204 19.3921 15.7236 19.4223 15.7293C19.6211 15.3932 19.8023 15.0405 19.966 14.672C19.9692 14.6646 19.9725 14.6576 19.9763 14.6505C20.2222 14.0879 20.4078 13.5036 20.5329 12.8982C20.6298 12.4284 20.6896 11.9467 20.7124 11.4533H17.7824C17.7291 12.8953 17.2851 14.3175 16.4574 15.7204H19.3298ZM18.819 16.6262H15.8681C14.9724 17.8844 13.7657 19.1272 12.2538 20.3545C12.4909 20.3259 12.7254 20.2892 12.9571 20.2443C13.5895 20.1217 14.1997 19.9387 14.7868 19.6953L14.7865 19.6947C15.3833 19.4457 15.9392 19.1544 16.4531 18.8202C16.968 18.4852 17.4454 18.1046 17.884 17.6774L17.8857 17.6757C18.2252 17.3479 18.5362 16.9979 18.819 16.6262ZM9.74617 20.3543C8.23443 19.1272 7.02778 17.8844 6.13194 16.6262H3.18147C3.46436 16.9979 3.77517 17.3479 4.11443 17.6757L4.11617 17.6776V17.6774C4.55498 18.1046 5.0323 18.4852 5.54708 18.8202C6.06082 19.1544 6.61671 19.4457 7.21371 19.6947C7.22117 19.6979 7.22862 19.701 7.23591 19.7046C7.81608 19.9432 8.41863 20.123 9.0432 20.2443C9.27492 20.2892 9.50907 20.3259 9.74617 20.3543ZM2.57286 15.7204H5.54257C4.71507 14.3175 4.27088 12.8953 4.21798 11.4533H1.28815C1.3107 11.9467 1.37054 12.4282 1.4675 12.898C1.59394 13.5112 1.78282 14.1029 2.03362 14.6722L2.03431 14.672C2.19648 15.0374 2.37582 15.387 2.57286 15.7204ZM1.28815 10.5476H4.23619C4.34459 9.13478 4.82798 7.71241 5.69434 6.28045H2.57286C2.37582 6.6138 2.19648 6.96346 2.03431 7.32894C2.03102 7.33617 2.02755 7.3434 2.02408 7.3503C1.77796 7.91306 1.59255 8.49734 1.4675 9.10282C1.37054 9.57257 1.3107 10.0543 1.28815 10.5476ZM3.18147 5.37476H6.29272C7.17867 4.13672 8.35012 2.89145 9.81191 1.63895C9.55243 1.66839 9.29626 1.70757 9.04337 1.75669C8.41082 1.87929 7.80082 2.06245 7.21371 2.30565L7.21388 2.30616C6.61689 2.55524 6.061 2.84638 5.54726 3.18074C5.03247 3.51577 4.55515 3.89638 4.11634 4.32341L4.11443 4.32509C3.77517 4.65306 3.46436 5.00289 3.18147 5.37476ZM12.1881 1.63879C13.6499 2.89128 14.8213 4.13655 15.7075 5.37459H18.8189C18.536 5.00289 18.225 4.65289 17.8856 4.32509L17.8838 4.32341C17.4452 3.89621 16.9679 3.51577 16.4529 3.18074C15.939 2.84638 15.3831 2.55524 14.7863 2.30616C14.7788 2.30313 14.7714 2.29977 14.7643 2.29623C14.1839 2.05774 13.5814 1.87778 12.957 1.75669C12.7041 1.70757 12.4476 1.66839 12.1881 1.63879ZM19.4273 6.28045H16.3057C17.1722 7.71241 17.6556 9.13478 17.764 10.5476H20.7122C20.6895 10.0541 20.6295 9.57257 20.5327 9.10282C20.4061 8.48961 20.2174 7.89792 19.9666 7.3286L19.9659 7.32894C19.8037 6.96346 19.6245 6.6138 19.4273 6.28045ZM8.86091 0.868482C9.5533 0.734099 10.2665 0.666992 11.0002 0.666992C11.7338 0.666992 12.4469 0.734099 13.1393 0.868482C13.8216 1.00101 14.4848 1.19981 15.1292 1.46505C15.138 1.46807 15.1465 1.47127 15.1549 1.4748C15.7971 1.74289 16.4031 2.06094 16.971 2.43078C17.5378 2.79945 18.0621 3.2174 18.5434 3.68581C19.0265 4.15253 19.4575 4.66113 19.8375 5.21044C20.2186 5.76125 20.5469 6.34873 20.8234 6.97187L20.8227 6.97204L20.8234 6.97356C21.1021 7.60561 21.3106 8.2565 21.4486 8.92605C21.5872 9.59746 21.6562 10.2891 21.6562 11.0005C21.6562 11.7119 21.5872 12.4037 21.4486 13.0751C21.3121 13.7364 21.1068 14.3799 20.8334 15.0046C20.8303 15.013 20.827 15.0212 20.8232 15.0293C20.5467 15.6524 20.2186 16.2397 19.8373 16.7905C19.4573 17.34 19.0263 17.8485 18.5433 18.3152C18.062 18.7836 17.5375 19.2017 16.9708 19.5702C16.4031 19.9399 15.797 20.2583 15.1547 20.5262L15.1543 20.5255L15.1526 20.5262C14.5008 20.7963 13.8294 20.9985 13.1391 21.1323C12.4467 21.2667 11.7335 21.3338 11 21.3338C10.2665 21.3338 9.55313 21.2667 8.86074 21.1323C8.17858 21 7.51516 20.801 6.87064 20.5359C6.86214 20.5327 6.85364 20.5297 6.84514 20.526C6.20253 20.2581 5.59686 19.9399 5.02883 19.57C4.46236 19.2015 3.93786 18.7834 3.45656 18.315C2.97351 17.8483 2.5425 17.3397 2.16249 16.7904C1.78126 16.2397 1.4531 15.6522 1.17663 15.0291L1.17732 15.0288L1.17663 15.0273C0.898078 14.3952 0.689598 13.7443 0.551536 13.0748C0.413128 12.4035 0.34375 11.7119 0.34375 11.0003C0.34375 10.2891 0.413128 9.59729 0.55171 8.92589C0.688211 8.2644 0.893395 7.62108 1.16674 6.99626C1.16987 6.98802 1.17316 6.97961 1.1768 6.97154C1.45327 6.3484 1.78126 5.76092 2.16266 5.2101C2.54285 4.6608 2.97386 4.15219 3.45673 3.68547C3.93804 3.21707 4.46253 2.79912 5.029 2.43045C5.59703 2.06077 6.20288 1.74256 6.84531 1.47447L6.84549 1.47514L6.84705 1.47447C7.49902 1.20469 8.17043 1.00253 8.86091 0.868482ZM11.4673 2.22576V5.37476H14.5591C13.7467 4.33602 12.7173 3.28653 11.4673 2.22576ZM11.4673 6.28045V10.5476H16.8305C16.7093 9.14621 16.1733 7.72401 15.2144 6.28045H11.4673ZM11.4673 11.4533V15.7204H15.3715C16.2956 14.3083 16.7918 12.8857 16.8511 11.4533H11.4673ZM11.4673 16.6262V19.8137C12.7932 18.757 13.8785 17.6944 14.7186 16.6262H11.4673ZM10.5331 19.8141V16.6262H7.28153C8.12152 17.6944 9.20676 18.7572 10.5331 19.8141ZM10.5331 15.7204V11.4533H5.1492C5.20834 12.8859 5.7044 14.3083 6.62885 15.7204H10.5331ZM10.5331 10.5476V6.28045H6.786C5.82702 7.72401 5.29108 9.14638 5.16967 10.5476H10.5331ZM10.5331 5.37476V2.22543C9.28307 3.28619 8.25351 4.33602 7.44109 5.37476H10.5331Z" fill="#7A7AD1"/>
</svg>
