<svg width="62" height="58" viewBox="0 0 62 58" fill="none" xmlns="http://www.w3.org/2000/svg">
<path d="M31.1024 19.2889V20.002C32.2933 18.1744 33.6811 16.7324 35.2859 15.5861C37.8595 13.7374 40.9429 12.681 44.5965 12.0048C45.1819 11.8992 45.7421 12.3059 45.843 12.9239C45.9439 13.5367 45.5554 14.123 44.9649 14.2286C41.599 14.8466 38.7881 15.8027 36.497 17.4454C34.65 18.7713 33.1159 20.5672 31.8745 23.0234C40.6401 23.9425 45.8279 23.0445 49.5976 20.1763C53.3319 17.3292 55.8552 12.4116 59.1505 5.33351C58.1816 5.39161 57.1723 5.44443 56.1479 5.49197C49.5067 5.81418 42.2298 6.16809 37.688 10.3515C36.5273 11.4238 35.3918 12.7074 34.2867 14.2128C33.2118 15.6654 32.152 17.3557 31.1024 19.2889ZM28 13.5103C27.6316 12.9926 27.0601 12.5806 26.606 12.2478C25.7127 11.5981 24.6126 11.2178 23.3056 10.9167C22.7253 10.7847 22.3518 10.1825 22.478 9.57506C22.6041 8.96762 23.1794 8.57674 23.7598 8.70879C25.3191 9.06798 26.8393 10.0769 28 10.9167C28.1778 11.0454 28.1009 9.6226 28 9.3585C27.4499 7.94288 26.1821 6.13166 25.0668 5.10692C23.78 3.92372 21.5 3.50115 20.5856 3.50115L11.5 3.00115L14.2573 8.00115C15.6905 10.6898 18.2087 12.7866 20.5856 13.5103C22.6798 14.1441 25.1992 13.7532 28 13.5103ZM28.6851 16.1989C25.3444 16.5369 22.3518 16.4894 19.7378 15.6918C16.6796 14.7621 14.2018 12.85 12.3901 9.42716C12.38 9.40604 12.3649 9.37963 12.3548 9.3585L9.31685 2.7928C8.99893 2.10612 9.27648 1.28211 9.93252 0.954617C10.1445 0.848975 10.3665 0.806718 10.5835 0.822564L20.7521 1.47755C20.8076 1.48283 20.8631 1.48811 20.9186 1.49868L20.9439 1.50396C22.8413 1.75222 24.9205 2.02689 26.8028 3.76471C28.241 5.09053 29.2806 6.73856 29.977 8.53448C30.739 10.4994 31.0822 12.6387 31.0822 14.6935C31.0822 14.8466 31.0569 14.9945 31.0166 15.1319C31.5313 14.3237 32.0511 13.5631 32.5759 12.85C33.7871 11.1967 35.0184 9.80748 36.2548 8.66654C41.3618 3.96544 49.0425 3.5904 56.0469 3.25235C57.6668 3.17312 59.2464 3.09916 60.836 2.95655C61.0227 2.9407 61.2145 2.97239 61.3911 3.06219C61.926 3.33158 62.1531 4.00769 61.8907 4.5676C58.0403 12.8922 55.3152 18.597 50.8491 21.9987C46.494 25.3158 40.6654 26.3089 30.8349 25.1838V34.2215C34.9427 28.2263 38.9597 28.1259 45.52 27.9622C46.923 27.9252 48.4571 27.8882 50.2031 27.7773C50.3798 27.7667 50.5614 27.7984 50.733 27.8882C51.2679 28.1576 51.495 28.8337 51.2326 29.3936C48.553 35.1934 46.817 38.7906 43.8547 40.8242C41.0186 42.7733 37.2842 43.1272 30.8298 42.3983V57.183H28.67V42.7152C19.8135 43.7241 14.439 42.8737 10.3766 39.9157C6.22338 36.8784 3.60933 31.7389 0.107094 24.1696C-0.150274 23.6097 0.0717691 22.9336 0.606692 22.6642C0.783318 22.5744 0.970036 22.5427 1.15675 22.5533C2.59499 22.6695 4.06351 22.7329 5.57239 22.7963C12.052 23.0656 19.3593 23.3667 23.9667 27.6083C26.1266 29.5944 27.6455 31.2477 28.6801 33.07L28.6851 16.1989ZM26.3183 40.6869C24.8448 38.6585 23.2905 37.1373 21.6352 35.9488C19.6015 34.4909 17.3861 33.5137 14.9588 32.7108C14.3885 32.5259 14.0757 31.8868 14.2573 31.2952C14.439 30.6983 15.0446 30.3708 15.6098 30.5557C18.2188 31.4167 20.6158 32.4784 22.8514 34.0842C24.7993 35.4787 26.606 37.2799 28.3066 39.6991C28.1805 37.713 27.8222 36.1706 27.1358 34.7867C26.2477 32.9855 24.7792 31.3533 22.5436 29.2986C18.5014 25.5799 11.6079 25.2947 5.4866 25.0412C4.58329 25.0042 3.70016 24.9672 2.85236 24.9197C5.80958 31.216 8.1814 35.5526 11.6231 38.0563C14.9083 40.4492 19.3038 41.2732 26.3183 40.6869ZM31.718 36.9207C32.5254 36.1706 33.4338 35.5368 34.4027 34.998C36.6332 33.7567 39.1968 33.0172 41.5687 32.5841C42.1541 32.4784 42.7142 32.8851 42.8151 33.5031C42.9161 34.1159 42.5275 34.7022 41.9371 34.8078C39.762 35.2093 37.4205 35.8801 35.412 36.9946C33.9485 37.8081 32.6667 38.8645 31.7735 40.2273C37.2641 40.8031 40.4332 40.4914 42.689 38.9437C44.8943 37.4278 46.4234 34.5807 48.5126 30.1226C47.4881 30.1648 46.5091 30.1912 45.5806 30.2124C39.2877 30.3656 35.6088 30.4606 31.718 36.9207Z" fill="#EC8B50"/>
</svg>
