<svg width="60" height="60" viewBox="0 0 60 60" fill="none" xmlns="http://www.w3.org/2000/svg">
<path d="M13.0879 29.3437C12.7676 30.0026 11.9622 30.2796 11.2926 29.9644C10.623 29.6493 10.3416 28.8614 10.6618 28.1977C11.3702 26.7366 12.2436 25.3662 13.2528 24.1057C14.2718 22.8355 15.4266 21.6848 16.693 20.6725C17.2704 20.2094 18.1195 20.2953 18.5853 20.8635C19.0559 21.4317 18.9686 22.2673 18.3912 22.7257C17.2704 23.6234 16.2514 24.6357 15.3635 25.7434C14.4756 26.856 13.7138 28.0592 13.0879 29.3437ZM46.6401 45.201L48.2025 49.7276L48.9885 47.0393L48.6052 46.6239C48.4305 46.3756 48.3917 46.156 48.4887 45.9698C48.6974 45.5639 49.1292 45.6403 49.5319 45.6403C49.9541 45.6403 50.4781 45.5639 50.6091 46.0844C50.6528 46.2563 50.5994 46.4425 50.4732 46.6287L50.0899 47.0441L50.876 49.7324L52.2928 45.2058C53.3166 46.113 56.3394 46.2945 57.4651 46.9104C57.8193 47.1062 58.1444 47.3545 58.4016 47.6887C58.7946 48.1996 59.0323 48.8633 59.1003 49.7085L59.3332 52.1676C59.2749 52.7644 58.9304 53.1082 58.2512 53.1607H49.5368H40.6769C39.9976 53.1082 39.6531 52.7644 39.5949 52.1676L39.8278 49.7085C39.8957 48.8633 40.1334 48.1996 40.5265 47.6887C40.7836 47.3545 41.1087 47.1062 41.4629 46.9104C42.5934 46.2897 45.6163 46.1082 46.6401 45.201ZM7.70689 45.201L9.26927 49.7276L10.0553 47.0393L9.67199 46.6239C9.49732 46.3756 9.4585 46.156 9.55554 45.9698C9.76418 45.5639 10.196 45.6403 10.5987 45.6403C11.0209 45.6403 11.5449 45.5639 11.6759 46.0844C11.7196 46.2563 11.6662 46.4425 11.54 46.6287L11.1567 47.0441L11.9428 49.7324L13.3596 45.2058C14.3834 46.113 17.4062 46.2945 18.5319 46.9104C18.8861 47.1062 19.2112 47.3545 19.4684 47.6887C19.8614 48.1996 20.0991 48.8633 20.1671 49.7085L20.4 52.1676C20.3417 52.7644 19.9972 53.1082 19.318 53.1607H10.6084H1.74852C1.06923 53.1082 0.724729 52.7644 0.666504 52.1676L0.899404 49.7085C0.967334 48.8633 1.20509 48.1996 1.59811 47.6887C1.85527 47.3545 2.18036 47.1062 2.53456 46.9104C3.66025 46.2897 6.68795 46.1082 7.70689 45.201ZM6.96452 38.7311C7.08582 38.7645 7.20713 38.7645 7.33328 38.7406L7.11008 37.0026C7.22653 36.5728 7.40121 36.2386 7.62926 35.9951C7.87186 35.7372 8.17269 35.5797 8.5366 35.5128C9.01696 35.4794 9.16252 35.8232 9.63803 36.124C11.0937 37.0408 12.3261 37.3511 14.1262 37.3702L13.903 38.4732C13.8691 38.521 13.8545 38.5783 13.8593 38.6404C13.8593 38.6499 13.8642 38.6642 13.8642 38.6738L13.8351 38.8266C13.8836 38.8313 13.9321 38.8313 13.9758 38.8313C14.0195 38.86 14.0777 38.8743 14.1359 38.8695C14.4465 38.8409 14.6405 38.8695 14.6891 38.9746C14.7618 39.1131 14.6988 39.3996 14.495 39.8579L13.51 41.4528C13.1461 42.0448 12.7725 42.6417 12.3018 43.0762C11.8506 43.4916 11.2926 43.7686 10.5308 43.7686C9.82726 43.7686 9.29838 43.5012 8.85684 43.1049C8.40074 42.6942 8.03198 42.1356 7.68263 41.5864L6.80925 40.2161L6.8044 40.2113C6.53754 39.8197 6.39683 39.476 6.38712 39.2181C6.38227 39.1322 6.39683 39.0558 6.42594 38.9889C6.4502 38.9316 6.49387 38.8839 6.55209 38.8504C6.65399 38.7788 6.78985 38.7406 6.96452 38.7311ZM14.7327 38.4064L14.7861 36.1813C14.7182 35.2741 14.4173 34.5913 13.9321 34.0708C12.7385 32.8007 10.5163 32.476 8.83258 33.0729C8.55116 33.1731 8.27944 33.302 8.03683 33.4548C7.34298 33.8894 6.78499 34.5196 6.5618 35.3075C6.50843 35.4937 6.47446 35.6799 6.45505 35.8662C6.41623 36.6445 6.4405 37.5803 6.49387 38.3204C6.41624 38.3491 6.34345 38.3873 6.28038 38.4303C6.14452 38.521 6.04262 38.6356 5.97955 38.7788C5.91647 38.9125 5.88736 39.0605 5.89221 39.2277C5.90191 39.581 6.06688 40.0107 6.39197 40.4835L7.26535 41.8491C7.63411 42.4268 8.02228 43.0141 8.5269 43.4677C9.05092 43.9405 9.6914 44.2604 10.5405 44.2604C11.4527 44.2604 12.1174 43.9309 12.656 43.4343C13.1752 42.9568 13.5682 42.3313 13.9515 41.7058L14.9462 40.0919C14.9511 40.0824 14.9559 40.0728 14.9608 40.0633C15.2325 39.4521 15.2907 39.0319 15.15 38.7502C15.0627 38.5783 14.9268 38.4685 14.7327 38.4064ZM27.0473 6.61053C27.1686 6.64396 27.2899 6.64396 27.4161 6.62008L27.1929 4.88203C27.3045 4.45229 27.4792 4.11805 27.7121 3.87453C27.9547 3.61669 28.2555 3.45912 28.6194 3.39227C29.0998 3.35885 29.2453 3.70264 29.7208 4.00345C31.1765 4.92023 32.4089 5.2306 34.209 5.24969L33.9858 6.35269C33.9519 6.40044 33.9373 6.45774 33.9422 6.51981C33.9422 6.52936 33.947 6.54368 33.947 6.55323L33.9179 6.70603C33.9664 6.7108 34.0149 6.7108 34.0586 6.7108C34.1023 6.73945 34.1605 6.75378 34.2187 6.749C34.5293 6.72035 34.7234 6.749 34.7719 6.84928C34.8447 6.98775 34.7816 7.27424 34.5778 7.73263L33.5928 9.32743C33.2289 9.91952 32.8553 10.5164 32.3846 10.9509C31.9334 11.3663 31.3754 11.6432 30.6136 11.6432C29.9101 11.6432 29.3812 11.3759 28.9397 10.9795C28.4836 10.5689 28.1148 10.0102 27.7654 9.46113L26.8921 8.09074L26.8872 8.08597C26.6204 7.69443 26.4796 7.35064 26.4699 7.09279C26.4651 7.00685 26.4796 6.93045 26.5088 6.8636C26.533 6.8063 26.5767 6.75855 26.6349 6.72513C26.7368 6.65828 26.8727 6.62008 27.0473 6.61053ZM27.7897 13.0805L29.3521 17.6071L30.1381 14.9188L29.7548 14.5034C29.5801 14.2551 29.5413 14.0355 29.6384 13.8492C29.847 13.4434 30.2788 13.5198 30.6816 13.5198C31.1037 13.5198 31.6277 13.4434 31.7587 13.9638C31.8024 14.1357 31.749 14.3219 31.6229 14.5082L31.2395 14.9236L32.0256 17.6118L33.4473 13.0805C34.471 13.9877 37.4939 14.1692 38.6196 14.7851C38.9738 14.9809 39.2989 15.2292 39.556 15.5634C39.9491 16.0743 40.1868 16.738 40.2547 17.5832L40.4876 20.0422C40.4294 20.6391 40.0849 20.9829 39.4056 21.0354H30.6913H21.8313C21.152 20.9829 20.8075 20.6391 20.7493 20.0422L20.9822 17.5832C21.0502 16.738 21.2879 16.0743 21.6809 15.5634C21.9381 15.2292 22.2632 14.9809 22.6174 14.7851C23.7431 14.1692 26.7708 13.9877 27.7897 13.0805ZM34.8155 6.29062L34.8689 4.06553C34.801 3.1583 34.5002 2.4755 34.0149 1.95504C32.8213 0.68492 30.5991 0.360229 28.9154 0.957088C28.634 1.05736 28.3671 1.18628 28.1197 1.33908C27.4307 1.76882 26.8678 2.40387 26.6446 3.18695C26.5912 3.37317 26.5573 3.55939 26.5379 3.74561C26.4991 4.52392 26.5233 5.45979 26.5767 6.19989C26.4991 6.22854 26.4263 6.26674 26.3632 6.30972C26.2273 6.40044 26.1254 6.51504 26.0624 6.65828C25.9993 6.79198 25.9702 6.94 25.975 7.10712C25.9847 7.46046 26.1497 7.8902 26.4748 8.36291L27.3482 9.72852C27.7169 10.3063 28.1051 10.8936 28.6097 11.3472C29.1337 11.8199 29.7742 12.1398 30.6233 12.1398C31.5355 12.1398 32.2003 11.8104 32.7388 11.3138C33.258 10.8315 33.651 10.2108 34.0344 9.58528L35.029 7.97137C35.0339 7.96182 35.0387 7.95227 35.0436 7.94272C35.3153 7.33154 35.3735 6.91135 35.2328 6.62963C35.1455 6.45774 35.0096 6.34791 34.8155 6.29062ZM45.8929 38.7311C45.7182 38.7406 45.5872 38.7788 45.4901 38.8409C45.4319 38.8791 45.3931 38.9268 45.364 38.9794C45.3349 39.0414 45.3203 39.1178 45.3252 39.2086C45.3349 39.4712 45.4707 39.8102 45.7425 40.2017L45.7473 40.2065L46.6207 41.5769C46.97 42.126 47.3388 42.6847 47.7949 43.0953C48.2316 43.4916 48.7653 43.7542 49.4689 43.759C50.2306 43.759 50.7886 43.4821 51.2399 43.0667C51.7105 42.6321 52.0841 42.0401 52.448 41.4432L53.433 39.8484C53.6368 39.39 53.6999 39.1035 53.6271 38.965C53.5737 38.86 53.3845 38.8361 53.074 38.86C53.0157 38.8648 52.9624 38.8504 52.9138 38.8218C52.8653 38.8218 52.8168 38.8218 52.7731 38.817L52.8023 38.6642C52.7974 38.6547 52.7974 38.6451 52.7974 38.6308C52.7925 38.5687 52.8071 38.5114 52.8411 38.4637L53.0643 37.3607C51.2641 37.3368 50.0317 37.0312 48.5761 36.1144C48.0957 35.8136 47.955 35.4698 47.4747 35.5033C47.1107 35.5701 46.8099 35.7325 46.5673 35.9855C46.3344 36.229 46.1597 36.5633 46.0481 36.993L46.2713 38.7311C46.1355 38.7645 46.0142 38.7597 45.8929 38.7311ZM53.6611 38.4064C53.8552 38.4637 53.991 38.5735 54.0784 38.7454C54.2191 39.0271 54.1608 39.4521 53.8891 40.0585C53.8843 40.068 53.8794 40.0776 53.8746 40.0871L52.8799 41.701C52.4966 42.3218 52.1035 42.9473 51.5844 43.4295C51.0458 43.9261 50.3811 44.2604 49.4689 44.2556C48.6197 44.2556 47.9793 43.9357 47.4552 43.463C46.9506 43.0094 46.5625 42.4173 46.1937 41.8443L45.3203 40.4787C45.0001 40.006 44.8351 39.5762 44.8206 39.2229C44.8157 39.0558 44.8448 38.903 44.9079 38.7741C44.9758 38.6356 45.0729 38.5162 45.2087 38.4255C45.2718 38.3825 45.3446 38.3491 45.4222 38.3157C45.364 37.5756 45.3446 36.6445 45.3834 35.8614C45.4028 35.6752 45.4368 35.4889 45.4901 35.3027C45.7133 34.5196 46.2762 33.8846 46.9652 33.4501C47.2078 33.2973 47.4795 33.1684 47.7609 33.0681C49.4398 32.4712 51.6669 32.7959 52.8605 34.066C53.3457 34.5817 53.6514 35.2693 53.7144 36.1765L53.6611 38.4064ZM43.1223 22.9549C42.5546 22.487 42.4818 21.6514 42.9574 21.0927C43.4329 20.534 44.282 20.4624 44.8497 20.9304C45.1214 21.1548 45.3349 21.3362 45.495 21.4795C45.6891 21.6514 45.8929 21.8471 46.1161 22.0572C46.9312 22.8499 47.6833 23.6902 48.3529 24.5784C49.0225 25.4665 49.6338 26.4119 50.1724 27.4099C50.5169 28.0592 50.2646 28.8614 49.6096 29.2004C48.9497 29.5395 48.1345 29.2912 47.79 28.6466C47.3291 27.7871 46.7954 26.9562 46.1937 26.1684C45.5872 25.371 44.9322 24.6261 44.2286 23.9481C44.0685 23.7905 43.8841 23.6234 43.6852 23.4419C43.4474 23.2319 43.2582 23.0695 43.1223 22.9549ZM36.8195 55.6914C37.523 55.4574 38.2848 55.8347 38.5225 56.527C38.7603 57.2194 38.377 57.969 37.6734 58.203C36.5526 58.5754 35.3929 58.8619 34.1993 59.0481C33.0203 59.2391 31.8218 59.3346 30.6185 59.3346C29.3909 59.3346 28.173 59.2344 26.9746 59.0386C25.747 58.838 24.5631 58.542 23.4325 58.16C22.729 57.9213 22.3505 57.1668 22.5931 56.4745C22.8357 55.7821 23.6024 55.4097 24.3059 55.6484C25.3151 55.9875 26.3535 56.2501 27.4015 56.422C28.435 56.5891 29.5073 56.6798 30.6136 56.6798C31.7005 56.6798 32.7534 56.5939 33.7626 56.4315C34.8155 56.2692 35.8345 56.0161 36.8195 55.6914Z" fill="#EC8B50"/>
</svg>
