<svg width="64" height="64" viewBox="0 0 64 64" fill="none" xmlns="http://www.w3.org/2000/svg">
<path d="M51.2604 52.1382C51.1302 51.8163 51.0573 51.4627 51.0573 51.0933C51.0573 50.7239 51.1302 50.3704 51.2604 50.0485C51.3958 49.7266 51.5885 49.4311 51.8281 49.1883L51.8438 49.1672C51.9792 49.03 52.1354 48.8981 52.3021 48.7978C52.3906 48.7398 52.4844 48.687 52.5885 48.6395V44.3018H48.1563C48.0208 45.2516 47.5729 46.1065 46.9271 46.7661C46.1198 47.5841 45 48.0907 43.7656 48.0907H41.0938V59.9218H48.9323C48.974 59.8532 49.0156 59.7846 49.0625 59.716C49.1563 59.5788 49.2604 59.4522 49.375 59.3361C49.6198 59.088 49.9167 58.8822 50.25 58.745C50.5677 58.6131 50.9167 58.5392 51.2813 58.5392C51.6406 58.5392 51.9948 58.6131 52.3125 58.745C52.6458 58.8822 52.9375 59.088 53.1875 59.3361C53.4323 59.5841 53.6354 59.8849 53.7708 60.2226C53.901 60.5445 53.974 60.8981 53.974 61.2675C53.974 61.6316 53.901 61.9799 53.7708 62.3123C53.6354 62.6501 53.4323 62.9508 53.1875 63.1989C52.9427 63.4469 52.6458 63.6527 52.3125 63.7899C51.9948 63.9218 51.6458 63.9957 51.2813 63.9957C50.9271 63.9957 50.5885 63.9271 50.2708 63.7952L50.25 63.7899C49.9167 63.6527 49.625 63.4469 49.375 63.1989C49.224 63.0458 49.0885 62.8664 48.974 62.6817C48.9115 62.5762 48.8542 62.4601 48.8073 62.3493H39.8958C39.5625 62.3493 39.2656 62.2121 39.0469 61.9904C38.8229 61.7635 38.6875 61.4627 38.6875 61.125V48.0907H32.8542V58.8242C32.9427 58.8717 33.0313 58.9192 33.1198 58.9772C33.2813 59.0775 33.4323 59.2041 33.5625 59.3361C33.8125 59.5894 34.0104 59.8849 34.1458 60.2226C34.276 60.5445 34.349 60.8981 34.349 61.2675C34.349 61.6263 34.2813 61.9693 34.151 62.2912L34.1458 62.3123C34.0104 62.6501 33.8073 62.9456 33.5625 63.1989C33.3177 63.4469 33.0208 63.6527 32.6875 63.7899C32.3698 63.9218 32.0208 63.9957 31.6563 63.9957C31.2969 63.9957 30.9479 63.9218 30.625 63.7899C30.2917 63.6527 29.9948 63.4469 29.75 63.1989C29.5052 62.9508 29.3021 62.6501 29.1667 62.3123C29.0365 61.9904 28.9635 61.6369 28.9635 61.2675C28.9635 60.9086 29.0313 60.5656 29.1615 60.2437L29.1667 60.2226C29.3021 59.8849 29.5052 59.5894 29.75 59.3361C29.8802 59.2041 30.0208 59.088 30.1771 58.9878L30.1979 58.972C30.2813 58.9245 30.3698 58.877 30.4583 58.8295V48.0907H22.6771V53.6527C22.6771 53.9904 22.5417 54.2912 22.3229 54.5129C22.1042 54.7345 21.8073 54.8717 21.474 54.8717H15.9531C15.9115 54.9561 15.8646 55.0353 15.8125 55.1197C15.7188 55.2622 15.6094 55.3994 15.4844 55.526L15.4635 55.5471C15.2188 55.7952 14.9219 56.001 14.5885 56.1382C14.2708 56.2701 13.9219 56.344 13.5573 56.344C13.2031 56.344 12.8646 56.2754 12.5469 56.1435L12.526 56.1382C12.1927 56.001 11.901 55.7952 11.651 55.5471C11.4063 55.2991 11.2031 54.9983 11.0677 54.6606C10.9375 54.3387 10.8646 53.9851 10.8646 53.6157C10.8646 53.2516 10.9375 52.8981 11.0677 52.5709C11.2031 52.2332 11.4063 51.9324 11.651 51.6844C11.9063 51.4416 12.2083 51.2358 12.5417 51.0986C12.8594 50.9667 13.2083 50.8928 13.5729 50.8928C13.9375 50.8928 14.2865 50.9667 14.6042 51.0986C14.9219 51.2358 15.2135 51.4311 15.4531 51.6791L15.474 51.6949C15.6094 51.8321 15.7396 51.9904 15.8385 52.1593C15.8906 52.249 15.9479 52.344 15.9948 52.4495H20.276V47.9904C19.4271 47.8004 18.6667 47.3677 18.0781 46.7714C17.2917 45.9746 16.8073 44.8875 16.8073 43.6949V40.7978H4.02604V48.7398C4.09375 48.782 4.16146 48.8242 4.22917 48.8717C4.36458 48.9667 4.48438 49.0722 4.60417 49.1883C4.84896 49.4363 5.05208 49.7371 5.1875 50.0749C5.31771 50.3968 5.39063 50.7503 5.39063 51.1197C5.39063 51.4838 5.31771 51.8427 5.1875 52.1646C5.05208 52.5023 4.84896 52.7978 4.60417 53.0511C4.35938 53.2991 4.0625 53.5049 3.72917 53.6421C3.41146 53.7741 3.0625 53.8479 2.69792 53.8479C2.33854 53.8479 1.99479 53.7741 1.66667 53.6421C1.33333 53.5049 1.03646 53.2991 0.791667 53.0511C0.546875 52.8031 0.34375 52.5023 0.208333 52.1646C0.0729167 51.8321 0 51.4785 0 51.1092C0 50.7503 0.0677083 50.4073 0.197917 50.0854L0.203125 50.0643C0.338542 49.7266 0.541667 49.4311 0.786458 49.1778C0.9375 49.0247 1.11458 48.8875 1.29688 48.7714C1.39583 48.7081 1.51562 48.6501 1.625 48.6026V39.5788C1.625 39.2411 1.76042 38.9403 1.97917 38.7187C2.20313 38.4917 2.5 38.3545 2.83333 38.3545H16.8073V32.4442H5.10938C5.0625 32.534 5.01563 32.6237 4.95833 32.7134C4.85938 32.877 4.73438 33.03 4.60417 33.1619C4.35417 33.4152 4.0625 33.6158 3.72917 33.753C3.41146 33.8849 3.0625 33.9588 2.69792 33.9588C2.34375 33.9588 2.00521 33.8902 1.6875 33.7582L1.66667 33.753C1.33333 33.6158 1.04167 33.4099 0.791667 33.1619C0.546875 32.9139 0.34375 32.6131 0.208333 32.2754C0.078125 31.9535 0.00520833 31.5999 0.00520833 31.2305C0.00520833 30.8664 0.078125 30.5128 0.208333 30.1857C0.34375 29.8479 0.546875 29.5471 0.791667 29.2991C1.03646 29.0511 1.33333 28.8453 1.66667 28.7081C1.98958 28.5709 2.33333 28.497 2.70313 28.497C3.05729 28.497 3.39583 28.5656 3.71354 28.6975L3.73438 28.7028C4.06771 28.84 4.35938 29.0458 4.60938 29.2939C4.73958 29.4258 4.85417 29.5683 4.95833 29.7266L4.97396 29.7477C5.02083 29.8321 5.06771 29.9218 5.11458 30.0115H16.8073V22.6712C16.8073 22.4917 16.8177 22.3123 16.8385 22.1329H10.2135C9.88021 22.1329 9.58333 21.9957 9.36458 21.7741C9.14583 21.5524 9.01042 21.2516 9.01042 20.9139V15.3202C8.92708 15.278 8.84896 15.2305 8.76563 15.1778C8.625 15.0828 8.48958 14.972 8.36458 14.8453L8.34375 14.8242C8.09896 14.5762 7.89583 14.2754 7.76042 13.9377C7.63021 13.6158 7.55729 13.2622 7.55729 12.8928C7.55729 12.534 7.625 12.1909 7.75521 11.8691L7.76042 11.8479C7.89583 11.5102 8.09896 11.2147 8.34375 10.9614C8.58854 10.7134 8.88542 10.5076 9.21875 10.3704C9.53646 10.2384 9.88542 10.1646 10.25 10.1646C10.6094 10.1646 10.9583 10.2384 11.2813 10.3704C11.6146 10.5076 11.9115 10.7134 12.1563 10.9614C12.3958 11.22 12.599 11.526 12.7344 11.8638C12.8646 12.1857 12.9375 12.5392 12.9375 12.9086C12.9375 13.278 12.8646 13.6316 12.7344 13.9535C12.599 14.2754 12.4063 14.5709 12.1667 14.8136L12.151 14.8348C12.0156 14.972 11.8594 15.1039 11.6875 15.2041C11.599 15.2569 11.5052 15.315 11.401 15.3625V19.7002H17.9375V19.7318C17.9792 19.6844 18.026 19.6369 18.0677 19.5946C18.875 18.7767 19.9948 18.2701 21.2292 18.2701H23.7344V4.08013H15.9063C15.8646 4.14873 15.8229 4.21734 15.776 4.28594C15.6823 4.42314 15.5781 4.54451 15.4635 4.66588C15.2188 4.91391 14.9219 5.11971 14.5885 5.25691C14.2708 5.38884 13.9219 5.46272 13.5573 5.46272C13.1979 5.46272 12.8438 5.38884 12.526 5.25691C12.1927 5.11971 11.901 4.91391 11.651 4.66588C11.4063 4.41786 11.2031 4.11707 11.0677 3.77934C10.9375 3.45216 10.8646 3.10388 10.8646 2.72921C10.8646 2.36509 10.9375 2.01681 11.0677 1.68435C11.2031 1.34662 11.4063 1.04583 11.651 0.79781C11.8958 0.549789 12.1927 0.343984 12.526 0.206781C12.8438 0.0748552 13.1927 0.000976562 13.5573 0.000976562C13.9115 0.000976562 14.25 0.0695781 14.5677 0.201504L14.5885 0.206781C14.9219 0.343984 15.2135 0.549789 15.4635 0.79781C15.6146 0.950845 15.75 1.13026 15.8646 1.31496C15.9271 1.41522 15.9844 1.5366 16.0365 1.64741H24.9375C25.2708 1.64741 25.5677 1.78462 25.7865 2.00625C26.0104 2.23317 26.1458 2.53396 26.1458 2.87169V18.2701H31.9792V5.17776C31.8906 5.13026 31.8021 5.08277 31.7135 5.02472C31.5521 4.92446 31.401 4.79781 31.2708 4.66588C31.0208 4.41259 30.8229 4.11707 30.6875 3.77934C30.5573 3.45744 30.4844 3.10388 30.4844 2.73449C30.4844 2.37565 30.5521 2.03264 30.6823 1.71074L30.6875 1.68963C30.8229 1.3519 31.026 1.05639 31.2708 0.803087C31.5156 0.555066 31.8125 0.349262 32.1458 0.212058C32.4635 0.0801322 32.8125 0.00625361 33.1771 0.00625361C33.5365 0.00625361 33.8854 0.0801322 34.2083 0.212058C34.5417 0.349262 34.8385 0.555066 35.0833 0.803087C35.3281 1.05111 35.5313 1.3519 35.6667 1.68963C35.7969 2.01153 35.8698 2.36509 35.8698 2.73449C35.8698 3.09332 35.8021 3.43633 35.6719 3.75823L35.6667 3.77934C35.5313 4.11707 35.3281 4.41259 35.0833 4.66588C34.9531 4.79781 34.8125 4.91391 34.6563 5.01945L34.6354 5.03528C34.5521 5.08277 34.4635 5.13026 34.375 5.17776V18.2648H42.151V10.3493C42.151 10.0115 42.2865 9.71074 42.5052 9.4891C42.724 9.26747 43.0208 9.13026 43.3542 9.13026H48.8802C48.9219 9.04583 48.9688 8.96668 49.0208 8.88224C49.1146 8.73976 49.224 8.60256 49.349 8.47591L49.3698 8.4548C49.6146 8.20678 49.9115 8.00098 50.2448 7.86377C50.5625 7.73185 50.9115 7.65797 51.276 7.65797C51.6302 7.65797 51.9688 7.72657 52.2865 7.8585L52.3073 7.86377C52.6406 8.00098 52.9323 8.20678 53.1823 8.4548C53.4271 8.70282 53.6302 9.00362 53.7656 9.34135C53.8958 9.66325 53.9688 10.0168 53.9688 10.3862C53.9688 10.7503 53.8958 11.1039 53.7656 11.4311C53.6302 11.7688 53.4271 12.0696 53.1823 12.3176C52.9219 12.5603 52.625 12.7661 52.2917 12.9034C51.974 13.0353 51.625 13.1092 51.2604 13.1092C50.8958 13.1092 50.5469 13.0353 50.2292 12.9034C49.9115 12.7661 49.6198 12.5709 49.3802 12.3282L49.3594 12.3123C49.224 12.1751 49.0938 12.0168 48.9948 11.8479C48.9375 11.7582 48.8854 11.6632 48.8385 11.5577H44.5573V18.3334C45.4792 18.497 46.3021 18.9508 46.9323 19.5894C47.7188 20.3862 48.2031 21.4733 48.2031 22.6659V23.2094H59.974V15.2675C59.9063 15.2253 59.8385 15.183 59.7708 15.1355C59.6354 15.0406 59.5156 14.935 59.401 14.8189C59.1563 14.5709 58.9531 14.2701 58.8177 13.9324C58.6875 13.6105 58.6146 13.2569 58.6146 12.8875C58.6146 12.5234 58.6875 12.1646 58.8177 11.8427C58.9531 11.5049 59.1563 11.2094 59.401 10.9561C59.6458 10.7081 59.9427 10.5023 60.276 10.3651C60.5938 10.2332 60.9427 10.1593 61.3073 10.1593C61.6667 10.1593 62.0156 10.2332 62.3385 10.3651C62.6719 10.5023 62.9688 10.7081 63.2135 10.9561C63.4583 11.2041 63.6615 11.5049 63.7969 11.8427C63.9271 12.1646 64 12.5181 64 12.8875C64 13.2464 63.9323 13.5894 63.8021 13.9113L63.7969 13.9324C63.6615 14.2701 63.4583 14.5656 63.2135 14.8189C63.0625 14.972 62.8854 15.1092 62.7031 15.2253C62.599 15.2886 62.4844 15.3466 62.375 15.3994V24.4179C62.375 24.7556 62.2396 25.0564 62.0208 25.278C61.7969 25.5049 61.5 25.6421 61.1667 25.6421H48.2031V31.5524H58.8906C58.9375 31.4627 58.9844 31.373 59.0417 31.2833C59.1458 31.1197 59.2656 30.9667 59.3958 30.8347C59.6458 30.5815 59.9375 30.3809 60.2708 30.2437C60.5885 30.1118 60.9375 30.0379 61.3021 30.0379C61.6563 30.0379 61.9948 30.1065 62.3125 30.2384L62.3333 30.2437C62.6667 30.3809 62.9583 30.5867 63.2083 30.8347C63.4531 31.0828 63.6563 31.3836 63.7917 31.7213C63.9219 32.0432 63.9948 32.3968 63.9948 32.7661C63.9948 33.1303 63.9219 33.4838 63.7917 33.811C63.6563 34.1487 63.4531 34.4495 63.2083 34.6975C62.9635 34.9456 62.6667 35.1514 62.3333 35.2886C62.0156 35.4205 61.6667 35.4944 61.3021 35.4944C60.9479 35.4944 60.6094 35.4258 60.2917 35.2938L60.2708 35.2886C59.9375 35.1514 59.6458 34.9456 59.3958 34.6975C59.2656 34.5656 59.151 34.4231 59.0469 34.2648L59.0313 34.2437C58.9844 34.1593 58.9375 34.0696 58.8906 33.9799H48.2031V41.8585H53.7865C54.1198 41.8585 54.4167 41.9957 54.6354 42.2173C54.8542 42.439 54.9896 42.7398 54.9896 43.0775V48.6764C55.0729 48.7187 55.151 48.7661 55.2344 48.8242C55.375 48.9192 55.5104 49.03 55.6354 49.1567L55.6563 49.1778C55.901 49.4258 56.1042 49.7266 56.2396 50.0643C56.3698 50.3862 56.4427 50.7398 56.4427 51.1092C56.4427 51.468 56.375 51.811 56.2448 52.1329L56.2396 52.154C56.1042 52.4917 55.901 52.7873 55.6563 53.0406C55.4115 53.2886 55.1146 53.4944 54.7813 53.6316C54.4635 53.7635 54.1146 53.8374 53.75 53.8374C53.3906 53.8374 53.0417 53.7635 52.7188 53.6316C52.3854 53.4944 52.0885 53.2886 51.8438 53.0406C51.6042 52.782 51.3958 52.4759 51.2604 52.1382ZM27.8594 27.5155H37.151C37.875 27.5155 38.4635 28.1118 38.4635 28.8453V37.5155C38.4635 38.249 37.875 38.8453 37.151 38.8453H27.8594C27.1354 38.8453 26.5469 38.249 26.5469 37.5155V28.8453C26.5469 28.1118 27.1354 27.5155 27.8594 27.5155ZM43.7708 20.6237H21.2344C20.7188 20.6237 20.2448 20.84 19.901 21.1936C19.5313 21.5683 19.3021 22.0907 19.3021 22.6712V43.6896C19.3021 44.2701 19.5313 44.7925 19.901 45.1672C20.25 45.5208 20.7188 45.7371 21.2344 45.7371H43.7708C44.2865 45.7371 44.7604 45.5208 45.1042 45.1672C45.474 44.7925 45.7031 44.2701 45.7031 43.6896V22.6712C45.7031 22.0907 45.474 21.5683 45.1042 21.1936C44.7604 20.84 44.2865 20.6237 43.7708 20.6237Z" fill="#EC8B50"/>
</svg>
