<svg width="119" height="120" viewBox="0 0 119 120" fill="none" xmlns="http://www.w3.org/2000/svg">
<g opacity="0.51" filter="url(#filter0_dd)">
<path d="M94 62.9922C94 80.6653 79.6731 94.9922 62 94.9922C44.3269 94.9922 30 80.6653 30 62.9922C30 45.3191 44.3269 30.9922 62 30.9922C79.6731 30.9922 94 45.3191 94 62.9922Z" fill="#110B11"/>
</g>
<path fill-rule="evenodd" clip-rule="evenodd" d="M58.2867 57.3519H64.3463V60.5519H64.4339C65.2778 58.9925 67.3412 57.3519 70.4182 57.3519C76.8168 57.3519 78.0002 61.4538 78.0002 66.7898V77.6595H71.6808V68.024C71.6808 65.727 71.6344 62.7702 68.395 62.7702C65.1046 62.7702 64.6003 65.2706 64.6003 67.8567V77.6595H58.2867V57.3519ZM53.9058 51.711C53.9058 53.5794 52.4338 55.0958 50.6199 55.0958C48.806 55.0958 47.3335 53.5794 47.3335 51.711C47.3335 49.8425 48.806 48.3262 50.6199 48.3262C52.4338 48.3262 53.9058 49.8425 53.9058 51.711ZM47.3335 57.3519H53.9058V77.6595H47.3335V57.3519Z" fill="white"/>
<defs>
<filter id="filter0_dd" x="0" y="0.992188" width="119" height="119" filterUnits="userSpaceOnUse" color-interpolation-filters="sRGB">
<feFlood flood-opacity="0" result="BackgroundImageFix"/>
<feColorMatrix in="SourceAlpha" type="matrix" values="0 0 0 0 0 0 0 0 0 0 0 0 0 0 0 0 0 0 127 0"/>
<feOffset dx="-10" dy="-10"/>
<feGaussianBlur stdDeviation="10"/>
<feColorMatrix type="matrix" values="0 0 0 0 0.141176 0 0 0 0 0.145098 0 0 0 0 0.160784 0 0 0 1 0"/>
<feBlend mode="normal" in2="BackgroundImageFix" result="effect1_dropShadow"/>
<feColorMatrix in="SourceAlpha" type="matrix" values="0 0 0 0 0 0 0 0 0 0 0 0 0 0 0 0 0 0 127 0"/>
<feOffset dx="5" dy="5"/>
<feGaussianBlur stdDeviation="10"/>
<feColorMatrix type="matrix" values="0 0 0 0 0.0823529 0 0 0 0 0.0823529 0 0 0 0 0.0941176 0 0 0 1 0"/>
<feBlend mode="normal" in2="effect1_dropShadow" result="effect2_dropShadow"/>
<feBlend mode="normal" in="SourceGraphic" in2="effect2_dropShadow" result="shape"/>
</filter>
</defs>
</svg>
