<svg width="92" height="92" viewBox="0 0 92 92" fill="none" xmlns="http://www.w3.org/2000/svg">
<g filter="url(#filter0_dd)">
<path d="M62 46C62 54.8366 54.8366 62 46 62C37.1634 62 30 54.8366 30 46C30 37.1634 37.1634 30 46 30C54.8366 30 62 37.1634 62 46Z" fill="#110B11"/>
<path fill-rule="evenodd" clip-rule="evenodd" d="M44.1431 43.1799H47.1729V44.7799H47.2167C47.6386 44.0001 48.6704 43.1799 50.2089 43.1799C53.4081 43.1799 53.9998 45.2308 53.9998 47.8988V53.3337H50.8402V48.5159C50.8402 47.3674 50.817 45.889 49.1972 45.889C47.552 45.889 47.2999 47.1392 47.2999 48.4322V53.3337H44.1431V43.1799ZM41.9526 40.3594C41.9526 41.2936 41.2166 42.0518 40.3097 42.0518C39.4028 42.0518 38.6665 41.2936 38.6665 40.3594C38.6665 39.4252 39.4028 38.667 40.3097 38.667C41.2166 38.667 41.9526 39.4252 41.9526 40.3594ZM38.6665 43.1799H41.9526V53.3337H38.6665V43.1799Z" fill="white" fill-opacity="0.85"/>
</g>
<defs>
<filter id="filter0_dd" x="0" y="0" width="92" height="92" filterUnits="userSpaceOnUse" color-interpolation-filters="sRGB">
<feFlood flood-opacity="0" result="BackgroundImageFix"/>
<feColorMatrix in="SourceAlpha" type="matrix" values="0 0 0 0 0 0 0 0 0 0 0 0 0 0 0 0 0 0 127 0"/>
<feOffset dx="-10" dy="-10"/>
<feGaussianBlur stdDeviation="10"/>
<feColorMatrix type="matrix" values="0 0 0 0 0.141176 0 0 0 0 0.145098 0 0 0 0 0.160784 0 0 0 0.5 0"/>
<feBlend mode="normal" in2="BackgroundImageFix" result="effect1_dropShadow"/>
<feColorMatrix in="SourceAlpha" type="matrix" values="0 0 0 0 0 0 0 0 0 0 0 0 0 0 0 0 0 0 127 0"/>
<feOffset dx="10" dy="10"/>
<feGaussianBlur stdDeviation="10"/>
<feColorMatrix type="matrix" values="0 0 0 0 0.0823529 0 0 0 0 0.0823529 0 0 0 0 0.0941176 0 0 0 1 0"/>
<feBlend mode="normal" in2="effect1_dropShadow" result="effect2_dropShadow"/>
<feBlend mode="normal" in="SourceGraphic" in2="effect2_dropShadow" result="shape"/>
</filter>
</defs>
</svg>
