<svg width="18" height="24" viewBox="0 0 18 24" fill="none" xmlns="http://www.w3.org/2000/svg">
<path fill-rule="evenodd" clip-rule="evenodd" d="M13.377 20.4842C12.3168 21.644 11.0821 22.6828 9.69568 23.5229C9.52498 23.6477 9.29359 23.6629 9.10393 23.5418C7.05557 22.2419 5.33532 20.681 3.98302 18.9838C2.11673 16.649 0.942717 14.0606 0.540631 11.5668C0.130958 9.03903 0.514078 6.60583 1.77534 4.62861C2.27226 3.84718 2.90763 3.13576 3.68146 2.52084C5.4605 1.10746 7.49179 0.360089 9.5174 0.375225C11.4671 0.390362 13.3922 1.11503 15.0556 2.63058C15.6397 3.16036 16.131 3.76771 16.533 4.42616C17.8891 6.65502 18.1812 9.49691 17.5857 12.3767C16.9977 15.2223 15.5373 18.1134 13.377 20.4785V20.4842ZM9.13048 4.87079C11.5354 4.87079 13.4833 6.81585 13.4833 9.2131C13.4833 11.6123 11.5335 13.5554 9.13048 13.5554C6.72555 13.5554 4.77771 11.6123 4.77771 9.2131C4.77581 6.81395 6.72555 4.87079 9.13048 4.87079Z" fill="white" fill-opacity="0.85"/>
</svg>
