<svg width="178" height="68" viewBox="0 0 178 68" fill="none" xmlns="http://www.w3.org/2000/svg">
<g clip-path="url(#clip0)">
<path d="M83.1166 17.0547C73.7729 25.543 66.6295 34.3621 64.0467 43.4835H57.1994C55.3002 36.2197 51.02 29.8236 44.0469 26.9968C50.3468 28.2994 55.3552 31.9704 60.8614 39.0987C66.2628 30.7954 73.9589 23.1747 83.1166 17.0547Z" fill="#EC8B50"/>
<path d="M83.1163 17.0547C82.6238 17.508 82.1445 17.9926 81.6363 18.485C81.1281 18.9774 80.6618 19.4594 80.1694 19.944C79.2028 20.921 78.2414 21.9059 77.3141 22.9194C75.449 24.9446 73.687 27.0445 72.028 29.2191C70.3758 31.3964 68.8874 33.6918 67.5748 36.0869C66.2649 38.47 65.2264 40.9911 64.4786 43.6033L64.379 43.9316H64.0411L57.1938 43.9681H56.827L56.7327 43.6086C56.268 41.8755 55.6545 40.1854 54.8991 38.5568C54.1514 36.9329 53.2329 35.3924 52.1591 33.9609C51.0881 32.5365 49.8371 31.2554 48.4368 30.1492C47.0355 29.0498 45.4885 28.1476 43.8396 27.4683L38.6006 25.3293L44.1513 26.4783C45.9262 26.8471 47.65 27.4271 49.2855 28.2056C50.9138 28.9864 52.4481 29.9478 53.8591 31.0715C55.2613 32.1897 56.575 33.4135 57.7884 34.7321C58.9987 36.0367 60.1422 37.401 61.2147 38.8199L60.5048 38.8486C63.4419 34.4576 66.8594 30.4041 70.6946 26.7623C72.6016 24.9385 74.6082 23.2268 76.6802 21.6037C77.2041 21.2024 77.728 20.796 78.2519 20.4026L79.8498 19.2406L81.4765 18.1229C82.0318 17.7633 82.5924 17.4168 83.1163 17.0547ZM83.1163 17.0547C82.5583 17.4351 82.0318 17.8363 81.5132 18.2063L79.9415 19.3891L78.3881 20.6006C77.8642 21.0096 77.3717 21.4317 76.8636 21.846C74.8492 23.529 72.9212 25.3085 71.0745 27.1635C69.2277 29.0185 67.4727 30.9621 65.8224 32.9891C64.175 35.0129 62.6436 37.1274 61.2356 39.3227L60.9108 39.8438L60.5284 39.3618C58.3568 36.6158 56.0124 33.9843 53.2645 31.8584C51.8997 30.7928 50.4223 29.8782 48.8585 29.1305C47.2934 28.3897 45.6443 27.8387 43.947 27.4892L44.2482 26.5122C45.9914 27.2214 47.624 28.1741 49.0969 29.3416C50.5632 30.508 51.8724 31.8574 52.9921 33.3564C54.1051 34.8481 55.0552 36.4533 55.8264 38.1451C56.5917 39.8317 57.2053 41.5824 57.66 43.3767L57.1964 43.0197L64.0437 43.0562L63.6168 43.3767C64.4238 40.7164 65.5292 38.1548 66.9121 35.7404C68.2843 33.3383 69.8442 31.0472 71.5774 28.8882C73.2993 26.7358 75.1356 24.6764 77.0784 22.7187C78.0423 21.7313 79.0351 20.7777 80.0358 19.832C80.5413 19.3656 81.0495 18.8915 81.5551 18.4407C82.0606 17.99 82.6003 17.5341 83.1163 17.0547Z" fill="#EC8B50"/>
<path d="M166.165 34.9869C166.165 34.9869 160.14 38.0455 158.364 43.4829H153.295C151.428 38.5718 145.728 33.1475 145.728 33.1475C145.728 33.1475 152.494 37.3473 155.705 42.2506C159.126 37.8423 166.165 34.9869 166.165 34.9869Z" fill="#EC8B50"/>
<path d="M166.165 34.9873C164.484 35.998 162.955 37.24 161.623 38.6765C160.964 39.3874 160.376 40.1605 159.868 40.9848C159.363 41.8001 158.962 42.6754 158.676 43.5902L158.608 43.8091H158.365C156.675 43.8481 154.985 43.8664 153.296 43.8924H153.034L152.921 43.6319C152.513 42.667 152.024 41.7379 151.46 40.8546C150.893 39.9628 150.281 39.1002 149.626 38.2701C148.976 37.4311 148.293 36.6156 147.583 35.8262C146.873 35.0368 146.132 34.263 145.385 33.5231L141.849 30.0371L146.019 32.7128C146.999 33.3407 147.921 33.9999 148.837 34.6929C149.754 35.3859 150.629 36.1206 151.483 36.884C152.34 37.6492 153.155 38.4597 153.925 39.3122C154.697 40.171 155.398 41.0911 156.02 42.0635L155.446 42.04C156.142 41.1979 156.919 40.4264 157.767 39.7369C158.607 39.0529 159.489 38.4237 160.41 37.8532C161.322 37.2832 162.264 36.7614 163.232 36.29C164.196 35.821 165.162 35.3599 166.165 34.9873ZM166.165 34.9873C165.194 35.4406 164.251 35.9513 163.323 36.4828C162.396 37.0143 161.49 37.5901 160.623 38.1971C159.752 38.8042 158.918 39.461 158.124 40.1642C157.731 40.5185 157.353 40.8832 156.992 41.2662C156.634 41.6469 156.297 42.047 155.983 42.4647L155.695 42.8503L155.412 42.4412C154.773 41.5323 154.062 40.6759 153.285 39.8802C152.5 39.0803 151.695 38.3169 150.844 37.5848C149.993 36.8527 149.11 36.1649 148.211 35.5006C147.313 34.8362 146.378 34.1822 145.453 33.5934L146.087 32.7832C146.873 33.5439 147.617 34.3464 148.337 35.1514C149.057 35.9565 149.749 36.8032 150.409 37.6682C151.067 38.5402 151.679 39.4455 152.243 40.3804C152.817 41.3206 153.298 42.3135 153.681 43.3453L153.296 43.0848C154.985 43.1108 156.675 43.1291 158.365 43.1681L158.053 43.3922C158.392 42.4433 158.851 41.5409 159.418 40.7061C159.981 39.8822 160.626 39.1167 161.343 38.4212C162.764 37.0399 164.39 35.8852 166.165 34.9977V34.9873Z" fill="#EC8B50"/>
<path d="M94.8887 17.0547C104.232 25.543 111.376 34.3621 113.959 43.4835H120.806C122.705 36.2197 126.985 29.8236 133.958 26.9968C127.672 28.2994 122.65 31.9704 117.144 39.0987C111.743 30.7954 104.046 23.1747 94.8887 17.0547Z" fill="#EC8B50"/>
<path d="M94.8887 17.0547C95.4126 17.5341 95.9365 17.9848 96.4394 18.4277C96.9424 18.8706 97.4532 19.3526 97.9587 19.819C98.9594 20.7647 99.9522 21.7183 100.916 22.7057C102.859 24.6633 104.695 26.7228 106.417 28.8752C108.15 31.0342 109.71 33.3253 111.082 35.7273C112.465 38.1418 113.571 40.7033 114.378 43.3637L113.951 43.0432L120.798 43.0067L120.334 43.3637C120.789 41.5694 121.403 39.8187 122.168 38.1321C122.939 36.4403 123.889 34.835 125.002 33.3434C126.126 31.8482 127.439 30.5032 128.908 29.3416C130.384 28.179 132.018 27.2308 133.762 26.5252L134.063 27.5022C132.368 27.8485 130.721 28.3961 129.157 29.1332C127.593 29.8808 126.116 30.7954 124.751 31.861C122.003 33.9869 119.659 36.6184 117.487 39.3644L117.105 39.8464L116.78 39.3253C115.37 37.128 113.835 35.0125 112.183 32.9891C110.532 30.9647 108.777 29.0159 106.944 27.1635C105.11 25.3111 103.148 23.529 101.141 21.846C100.633 21.4317 100.133 21.0096 99.6169 20.6006L98.0635 19.3891L96.4918 18.2063C95.9731 17.8337 95.4466 17.4351 94.8887 17.0547ZM94.8887 17.0547C95.4126 17.4168 95.9731 17.7633 96.539 18.1333L98.1657 19.251L99.7636 20.413C100.287 20.8064 100.811 21.2128 101.335 21.6141C103.407 23.2372 105.414 24.9515 107.321 26.7727C111.156 30.4129 114.573 34.4647 117.511 38.8538L116.801 38.8251C117.877 37.4156 119.014 36.0452 120.227 34.7373C121.44 33.4187 122.754 32.1949 124.156 31.0768C125.567 29.953 127.102 28.9916 128.73 28.2109C130.365 27.4323 132.089 26.8523 133.864 26.4835L139.41 25.3215L134.171 27.4605C132.521 28.1423 130.974 29.047 129.573 30.1492C128.173 31.2562 126.922 32.5382 125.851 33.9635C124.777 35.395 123.859 36.9355 123.111 38.5594C122.356 40.188 121.742 41.8781 121.277 43.6112L121.183 43.9707H120.816L113.959 43.9394H113.626L113.537 43.619C112.789 41.0067 111.751 38.4857 110.441 36.1025C109.128 33.7075 107.64 31.412 105.987 29.2348C104.333 27.0481 102.568 24.9455 100.701 22.935C99.774 21.9215 98.8127 20.9367 97.8461 19.9597C97.3536 19.4751 96.8821 18.9879 96.3792 18.5007C95.8762 18.0135 95.3811 17.508 94.8887 17.0547Z" fill="#EC8B50"/>
<path d="M11.8398 34.9869C11.8398 34.9869 17.8647 38.0455 19.6407 43.4829H24.7094C26.5771 38.5718 32.2772 33.1475 32.2772 33.1475C32.2772 33.1475 25.511 37.3473 22.2995 42.2506C18.8784 37.8423 11.8398 34.9869 11.8398 34.9869Z" fill="#EC8B50"/>
<path d="M11.8398 34.9873C13.6149 35.8747 15.2416 37.0295 16.6623 38.4107C17.3795 39.1063 18.0245 39.8718 18.5877 40.6956C19.1543 41.5304 19.6128 42.4329 19.9524 43.3818L19.6407 43.1577C21.3303 43.1186 23.0199 43.1004 24.7094 43.0743L24.3244 43.3349C24.7071 42.303 25.1887 41.3102 25.7625 40.37C26.3262 39.4351 26.9383 38.5298 27.5961 37.6578C28.2562 36.7893 28.9469 35.9504 29.6681 35.141C30.3885 34.3255 31.122 33.5335 31.9183 32.7727L32.5522 33.583C31.6197 34.1718 30.6897 34.8232 29.7939 35.4901C28.898 36.1571 28.0126 36.8527 27.1613 37.5744C26.3099 38.2961 25.4979 39.0699 24.7199 39.8697C23.9431 40.6654 23.2318 41.5219 22.5929 42.4308L22.31 42.8399L22.0218 42.4543C21.7075 42.04 21.3696 41.6388 21.0133 41.2558C20.6571 40.8728 20.2746 40.5081 19.8817 40.1537C19.0876 39.4506 18.2532 38.7938 17.3827 38.1867C16.5095 37.5805 15.6093 37.0091 14.682 36.4724C13.7547 35.9513 12.8117 35.4406 11.8398 34.9873ZM11.8398 34.9873C12.8463 35.3694 13.8318 35.8042 14.792 36.29C15.756 36.7668 16.699 37.2904 17.6132 37.8532C18.5342 38.4237 19.4171 39.0529 20.2563 39.7369C21.1045 40.4264 21.882 41.1979 22.5772 42.04L22.0035 42.0635C22.6255 41.0911 23.3263 40.171 24.0991 39.3122C24.8684 38.4598 25.6834 37.6492 26.5405 36.884C27.3944 36.1206 28.2719 35.3807 29.1861 34.6929C30.1003 34.0051 31.0198 33.3407 32.0047 32.7128L36.175 30.0371L32.636 33.5101C31.8895 34.2474 31.1481 35.0238 30.4383 35.8132C29.7284 36.6026 29.0447 37.4181 28.3951 38.257C27.7403 39.0872 27.1283 39.9498 26.5614 40.8415C25.9909 41.7273 25.4975 42.66 25.0866 43.6293L24.974 43.8898H24.712C23.0225 43.8638 21.3329 43.8455 19.6433 43.8065H19.3997L19.3316 43.5876C19.0458 42.6728 18.6454 41.7975 18.1397 40.9822C17.6315 40.1579 17.0437 39.3848 16.3847 38.6739C15.053 37.2374 13.5238 35.9954 11.8425 34.9847L11.8398 34.9873Z" fill="#EC8B50"/>
<path d="M177.999 28.4997C174.092 28.8601 170.16 28.8871 166.248 28.5805C162.321 28.289 158.415 27.775 154.547 27.0407C146.814 25.6 139.283 23.4922 131.935 21.3767C124.588 19.2611 117.379 17.1482 110.22 15.6032C103.061 14.0582 95.9722 13.0838 88.9048 13.0317C81.8374 12.9796 74.8092 13.8654 67.6868 15.4078C60.5644 16.9502 53.3765 19.0918 46.042 21.2464C38.7074 23.4011 31.192 25.5765 23.4593 27.0564C19.591 27.8089 15.681 28.3309 11.7501 28.6196C7.83468 28.9297 3.89909 28.8879 -0.00878906 28.4945C3.75805 27.4524 7.4201 26.3321 11.0088 25.0659C14.5975 23.7997 18.1129 22.3954 21.5968 20.9207C28.5647 17.9819 35.4094 14.7122 42.4899 11.6144C49.5704 8.51661 56.8971 5.56994 64.6718 3.40488C68.5984 2.30271 72.5916 1.45076 76.6272 0.85423C78.6652 0.560692 80.7197 0.339237 82.7909 0.189863C84.8577 0.0517786 86.9428 -0.0133559 89.0174 0.00227631C91.092 0.0179085 93.1588 0.122123 95.2125 0.291472C97.2662 0.460821 99.312 0.70833 101.337 1.02618C105.351 1.65679 109.323 2.52681 113.232 3.63155C120.983 5.79921 128.31 8.70159 135.398 11.7551C142.487 14.8086 149.368 18.0079 156.354 20.9286C159.851 22.385 163.374 23.7736 166.966 25.0398C170.557 26.306 174.237 27.4446 177.999 28.4997Z" fill="#EC8B50"/>
<path d="M21.8127 63.9172C21.6896 65.2016 21.2154 66.2021 20.3824 66.9238C19.5494 67.6455 18.4466 68.0024 17.0662 68.0024C16.1686 68.0208 15.2843 67.784 14.5174 67.3198C13.7728 66.8523 13.1819 66.1785 12.8173 65.3814C12.4001 64.4621 12.1875 63.4641 12.1939 62.4556V61.3327C12.1725 60.3 12.3799 59.2752 12.8016 58.3313C13.1689 57.5059 13.7754 56.8083 14.5436 56.3278C15.3323 55.852 16.2408 55.6089 17.1631 55.6269C18.499 55.6269 19.5739 55.9864 20.3877 56.7055C21.2015 57.4246 21.6756 58.4433 21.8101 59.7616H19.7145C19.6149 58.8932 19.3617 58.2687 18.9548 57.8884C18.5479 57.508 17.9507 57.3161 17.1631 57.3126C16.7582 57.2945 16.3551 57.3761 15.9895 57.5502C15.6239 57.7243 15.3072 57.9854 15.0675 58.3104C14.5768 58.9757 14.3262 59.9509 14.3157 61.2363V62.3045C14.3157 63.6071 14.5497 64.5998 15.0177 65.2824C15.2422 65.6162 15.5499 65.8862 15.9108 66.0662C16.2717 66.2461 16.6735 66.3298 17.0766 66.3089C17.9026 66.3089 18.5235 66.1248 18.9391 65.7566C19.353 65.3866 19.6175 64.7717 19.7249 63.912L21.8127 63.9172Z" fill="#7A7AD1"/>
<path d="M33.3513 62.1298C33.3746 63.1971 33.1645 64.2567 32.7357 65.2354C32.3682 66.0777 31.7562 66.7917 30.978 67.2858C30.1827 67.7547 29.2752 68.0021 28.3507 68.0021C27.4261 68.0021 26.5186 67.7547 25.7233 67.2858C24.9433 66.7938 24.325 66.0856 23.9447 65.2484C23.5091 64.2896 23.2917 63.2469 23.3081 62.1949V61.5175C23.2864 60.4473 23.501 59.3854 23.9368 58.4067C24.3098 57.5604 24.9258 56.8425 25.7076 56.3433C26.502 55.88 27.4062 55.6357 28.3271 55.6357C29.248 55.6357 30.1522 55.88 30.9466 56.3433C31.7243 56.8331 32.3387 57.5411 32.7121 58.378C33.1461 59.3491 33.3616 60.4028 33.3434 61.4654L33.3513 62.1298ZM31.2557 61.5019C31.2557 60.1679 31.0025 59.1458 30.496 58.4354C30.2462 58.1042 29.9222 57.8355 29.5499 57.6504C29.1775 57.4653 28.7669 57.3689 28.3507 57.3689C27.9344 57.3689 27.5238 57.4653 27.1515 57.6504C26.7791 57.8355 26.4552 58.1042 26.2053 58.4354C25.6936 59.144 25.4317 60.1462 25.4194 61.442V62.135C25.4194 63.4585 25.6814 64.4815 26.2053 65.2041C26.4438 65.5513 26.7669 65.8328 27.1443 66.0223C27.5217 66.2118 27.9412 66.3032 28.3638 66.2879C28.7828 66.3069 29.1999 66.2196 29.5756 66.034C29.9514 65.8485 30.2735 65.571 30.5117 65.2276C31.0147 64.5328 31.2653 63.5019 31.2635 62.135L31.2557 61.5019Z" fill="#7A7AD1"/>
<path d="M45.0502 67.8363H42.9547L37.5585 59.2959V67.8363H35.4629V55.7969H37.5585L42.9704 64.3711V55.7969H45.066L45.0502 67.8363Z" fill="#7A7AD1"/>
<path d="M53.8622 64.7358C53.8749 64.5019 53.8305 64.2684 53.7329 64.0551C53.6353 63.8419 53.4873 63.6553 53.3016 63.5113C52.9261 63.2247 52.2512 62.9355 51.2767 62.6437C50.4616 62.4197 49.679 62.0922 48.948 61.6693C47.8461 60.9745 47.2951 60.0757 47.2951 58.9727C47.2888 58.5079 47.3936 58.0482 47.6008 57.6315C47.808 57.2148 48.1117 56.8529 48.487 56.5758C49.2833 55.9453 50.3163 55.6309 51.5858 55.6327C52.3618 55.619 53.1311 55.7765 53.8386 56.0938C54.4702 56.3813 55.0082 56.8389 55.392 57.4147C55.7662 57.9769 55.9632 58.6373 55.9578 59.3114H53.8622C53.8769 59.0374 53.8313 58.7635 53.7286 58.5088C53.6259 58.2541 53.4685 58.0248 53.2676 57.8368C52.8729 57.479 52.3062 57.3053 51.5675 57.3157C51.0032 57.2786 50.4424 57.4279 49.9722 57.7404C49.7854 57.8839 49.6362 58.0702 49.5372 58.2834C49.4382 58.4966 49.3925 58.7304 49.4038 58.9649C49.4042 59.1854 49.4609 59.4022 49.5686 59.5949C49.6763 59.7877 49.8314 59.9501 50.0194 60.067C50.6451 60.4593 51.3294 60.7504 52.0469 60.9294C52.843 61.1447 53.6067 61.4645 54.318 61.8803C54.8303 62.1796 55.261 62.5991 55.5727 63.1022C55.8463 63.5973 55.9836 64.1554 55.9709 64.7202C55.9862 65.1828 55.8887 65.6422 55.6866 66.0592C55.4845 66.4762 55.1839 66.8383 54.8104 67.1145C54.0368 67.705 52.989 68.0012 51.667 68.0029C50.8367 68.0121 50.0137 67.847 49.2519 67.5183C48.5698 67.2364 47.9776 66.7753 47.5387 66.1844C47.1282 65.604 46.9144 64.9086 46.9284 64.1991H49.024C49.0076 64.4978 49.0605 64.7962 49.1786 65.0713C49.2967 65.3465 49.4768 65.5909 49.705 65.7857C50.1608 66.1609 50.8105 66.3485 51.6592 66.3485C52.39 66.3485 52.9401 66.2026 53.3095 65.9056C53.4878 65.7677 53.6308 65.5899 53.7268 65.3866C53.8229 65.1833 53.8693 64.9603 53.8622 64.7358Z" fill="#7A7AD1"/>
<path d="M66.6662 55.7969V63.8422C66.6662 65.1223 66.255 66.1358 65.4324 66.8827C64.6099 67.6296 63.5132 68.003 62.1423 68.003C60.7575 68.003 59.6573 67.6348 58.8418 66.8983C58.0262 66.1619 57.6194 65.1406 57.6211 63.8344V55.7969H59.7167V63.8527C59.7167 64.6577 59.921 65.27 60.3297 65.6946C60.7383 66.1193 61.346 66.333 62.1423 66.333C63.7612 66.333 64.5706 65.4836 64.5706 63.7849V55.7969H66.6662Z" fill="#7A7AD1"/>
<path d="M71.0145 66.1662H76.5155V67.8363H68.9189V55.7969H71.0145V66.1662Z" fill="#7A7AD1"/>
<path d="M85.1646 57.4852H81.3899V67.8363H79.2943V57.4852H75.5615V55.7969H85.1646V57.4852Z" fill="#7A7AD1"/>
<path d="M88.9716 67.8363H86.876V55.7969H88.9716V67.8363Z" fill="#7A7AD1"/>
<path d="M101.16 67.8363H99.064L93.6679 59.2959V67.8363H91.5723V55.7969H93.6679L99.0824 64.3711V55.7969H101.178L101.16 67.8363Z" fill="#7A7AD1"/>
<path d="M112.924 66.2757C112.451 66.8666 111.82 67.3135 111.103 67.5654C110.256 67.8692 109.361 68.0175 108.46 68.0031C107.517 68.0208 106.586 67.783 105.768 67.3153C104.983 66.8539 104.354 66.171 103.96 65.3534C103.518 64.421 103.292 63.4014 103.3 62.3703V61.4297C103.3 59.6077 103.737 58.1869 104.61 57.1674C105.483 56.1478 106.705 55.6363 108.277 55.6328C109.623 55.6328 110.693 55.9646 111.486 56.6281C112.272 57.2924 112.754 58.2486 112.916 59.494H110.855C110.621 58.0419 109.775 57.3167 108.319 57.3185C107.904 57.2955 107.49 57.3763 107.114 57.5533C106.738 57.7303 106.413 57.998 106.168 58.332C105.679 59.0059 105.426 59.9959 105.409 61.3021V62.227C105.409 63.5279 105.685 64.5371 106.236 65.2544C106.502 65.6063 106.851 65.8884 107.251 66.0764C107.651 66.2643 108.092 66.3524 108.534 66.333C109.611 66.333 110.376 66.0899 110.828 65.6035V63.2587H108.335V61.6694H112.924V66.2757Z" fill="#7A7AD1"/>
<path d="M119.476 67.8363V55.7969H123.625C124.992 55.7969 126.034 56.0696 126.75 56.615C127.466 57.1603 127.824 57.9741 127.824 59.0562C127.829 59.5861 127.672 60.1051 127.373 60.5438C127.048 61.0069 126.592 61.3641 126.064 61.5704C126.67 61.7159 127.207 62.068 127.58 62.5656C127.941 63.0803 128.125 63.6972 128.104 64.3242C128.104 65.4515 127.739 66.3199 127.009 66.9296C126.279 67.5392 125.231 67.8423 123.866 67.8389L119.476 67.8363ZM121.571 60.8669H123.633C124.18 60.8987 124.722 60.7424 125.168 60.424C125.352 60.2727 125.498 60.0805 125.594 59.8628C125.69 59.6452 125.733 59.4082 125.72 59.1708C125.72 58.5768 125.546 58.1469 125.197 57.8812C124.853 57.6206 124.324 57.4852 123.604 57.4852H121.558L121.571 60.8669ZM121.571 62.4041V66.1662H123.908C124.466 66.2 125.017 66.0263 125.453 65.679C125.641 65.5084 125.789 65.2983 125.885 65.064C125.982 64.8297 126.025 64.5771 126.011 64.3242C126.011 63.0719 125.369 62.4319 124.083 62.4041H121.571Z" fill="#7A7AD1"/>
<path d="M134.666 63.2065H132.308V67.8363H130.213V55.7969H134.47C135.867 55.7969 136.944 56.1086 137.702 56.7322C138.46 57.3558 138.84 58.2581 138.842 59.4392C138.867 60.1589 138.662 60.868 138.255 61.4635C137.84 62.0253 137.274 62.4595 136.623 62.7167L139.339 67.7294V67.8363H137.086L134.666 63.2065ZM132.308 61.5209H134.47C135.071 61.5562 135.664 61.3656 136.13 60.9868C136.332 60.8023 136.49 60.5759 136.594 60.3238C136.698 60.0716 136.744 59.7998 136.73 59.5278C136.748 59.2536 136.707 58.9788 136.612 58.7209C136.517 58.463 136.369 58.2276 136.178 58.0297C135.809 57.6823 135.259 57.5008 134.527 57.4852H132.308V61.5209Z" fill="#7A7AD1"/>
<path d="M143.061 67.8363H140.966V55.7969H143.061V67.8363Z" fill="#7A7AD1"/>
<path d="M154.883 63.9171C154.762 65.2007 154.286 66.2029 153.453 66.9237C152.62 67.6446 151.514 68.0041 150.136 68.0024C149.239 68.0208 148.355 67.784 147.588 67.3198C146.844 66.8516 146.253 66.178 145.888 65.3814C145.471 64.4618 145.259 63.464 145.264 62.4555V61.3326C145.243 60.2999 145.45 59.2752 145.872 58.3312C146.239 57.5059 146.846 56.8083 147.614 56.3277C148.403 55.8522 149.311 55.6092 150.233 55.6269C151.569 55.6269 152.645 55.9864 153.461 56.7055C154.276 57.4246 154.749 58.4433 154.88 59.7616H152.785C152.683 58.8966 152.431 58.2713 152.023 57.8883C151.614 57.5053 151.019 57.3126 150.231 57.3126C149.826 57.2938 149.422 57.3751 149.057 57.5492C148.691 57.7234 148.374 57.9849 148.135 58.3104C147.643 58.9748 147.394 59.9518 147.381 61.2362V62.3044C147.381 63.6071 147.616 64.5998 148.085 65.2824C148.309 65.6163 148.616 65.8865 148.977 66.0665C149.337 66.2465 149.739 66.33 150.142 66.3089C150.968 66.3089 151.589 66.1248 152.004 65.7565C152.421 65.3866 152.683 64.7717 152.79 63.9119L154.883 63.9171Z" fill="#7A7AD1"/>
<path d="M163.089 64.7358C163.102 64.5019 163.058 64.2684 162.96 64.0552C162.862 63.842 162.715 63.6554 162.529 63.5113C162.153 63.2247 161.478 62.9355 160.504 62.6437C159.689 62.4197 158.906 62.0922 158.175 61.6693C157.072 60.9745 156.521 60.0757 156.522 58.9728C156.516 58.5079 156.621 58.0482 156.828 57.6315C157.035 57.2148 157.339 56.853 157.714 56.5758C158.51 55.9453 159.543 55.6309 160.81 55.6327C161.587 55.6188 162.357 55.7763 163.066 56.0938C163.697 56.3814 164.235 56.8389 164.619 57.4147C164.993 57.9769 165.19 58.6373 165.185 59.3114H163.089C163.104 59.0374 163.058 58.7635 162.956 58.5088C162.853 58.2541 162.696 58.0248 162.495 57.8368C162.099 57.4799 161.531 57.3157 160.795 57.3157C160.232 57.2798 159.673 57.4291 159.205 57.7404C159.018 57.884 158.869 58.0702 158.77 58.2834C158.671 58.4966 158.625 58.7304 158.636 58.9649C158.637 59.1854 158.693 59.4022 158.801 59.595C158.909 59.7877 159.064 59.9501 159.252 60.067C159.878 60.4593 160.562 60.7504 161.279 60.9294C162.075 61.1442 162.838 61.464 163.548 61.8803C164.061 62.1789 164.493 62.5985 164.805 63.1023C165.079 63.5973 165.216 64.1554 165.203 64.7202C165.219 65.1828 165.121 65.6423 164.919 66.0592C164.717 66.4762 164.416 66.8383 164.043 67.1145C163.271 67.7051 162.223 68.0012 160.899 68.0029C160.069 68.0121 159.246 67.847 158.484 67.5183C157.802 67.2364 157.21 66.7753 156.771 66.1844C156.361 65.604 156.147 64.9086 156.161 64.1991H158.256C158.24 64.4978 158.293 64.7962 158.411 65.0714C158.529 65.3465 158.709 65.5909 158.937 65.7858C159.393 66.1609 160.043 66.3485 160.892 66.3485C161.622 66.3485 162.173 66.2026 162.542 65.9056C162.719 65.7672 162.861 65.5891 162.956 65.3859C163.051 65.1826 163.097 64.9599 163.089 64.7358Z" fill="#7A7AD1"/>
</g>
<defs>
<clipPath id="clip0">
<rect width="178" height="68" fill="white"/>
</clipPath>
</defs>
</svg>
