<svg width="48" height="48" viewBox="0 0 48 48" fill="none" xmlns="http://www.w3.org/2000/svg">
<circle cx="24" cy="24" r="24" fill="#7A7AD1"/>
<path d="M12.2507 14H35.7493C36.8503 14 37.75 14.8903 37.75 15.9799C37.75 17.0696 36.8503 17.9599 35.7493 17.9599H12.2507C11.1497 17.9599 10.25 17.0696 10.25 15.9799C10.25 14.8903 11.1497 14 12.2507 14ZM12.2507 31.2901H35.7493C36.8503 31.2901 37.75 32.1804 37.75 33.2701C37.75 34.3597 36.8503 35.25 35.7493 35.25H12.2507C11.1497 35.25 10.25 34.3597 10.25 33.2701C10.25 32.1804 11.1497 31.2901 12.2507 31.2901ZM12.2507 22.644H35.7493C36.8503 22.644 37.75 23.5343 37.75 24.6239C37.75 25.7135 36.8503 26.6038 35.7493 26.6038H12.2507C11.1497 26.6038 10.25 25.7135 10.25 24.6239C10.25 23.5365 11.1497 22.644 12.2507 22.644Z" fill="#191919"/>
</svg>
