<svg width="24" height="24" viewBox="0 0 24 24" fill="none" xmlns="http://www.w3.org/2000/svg">
<path d="M6.79537 9.93115C7.57881 11.348 8.48175 12.7078 9.65407 13.9478C10.8302 15.1954 12.2927 16.3308 14.1859 17.3007C14.3263 17.3692 14.459 17.3692 14.5785 17.3217C14.7588 17.2532 14.9428 17.1029 15.123 16.9223C15.2633 16.7815 15.4379 16.5571 15.62 16.3118C16.3484 15.3514 17.2494 14.1589 18.5223 14.7561C18.5508 14.7694 18.5716 14.7846 18.6001 14.796L22.8454 17.2437C22.8587 17.2513 22.8739 17.2646 22.8853 17.2722C23.4449 17.6583 23.6763 18.2536 23.682 18.9287C23.682 19.6153 23.4297 20.3874 23.0598 21.0397C22.5704 21.9013 21.8495 22.4718 21.0187 22.8484C20.2277 23.2135 19.3475 23.4094 18.5014 23.5349C17.1736 23.7308 15.9292 23.6053 14.6563 23.2135C13.4119 22.8275 12.158 22.1903 10.7884 21.3421L10.6879 21.2775C10.06 20.8838 9.38091 20.4635 8.71508 19.9671C6.2794 18.1223 3.79629 15.4579 2.1782 12.5252C0.821878 10.0643 0.0820684 7.40742 0.486118 4.87609C0.709958 3.48775 1.3037 2.22494 2.33944 1.39194C3.24238 0.661633 4.45833 0.262249 6.03279 0.402984C6.213 0.416297 6.37425 0.520897 6.45961 0.676847L9.18173 5.29069C9.58009 5.80798 9.62941 6.32148 9.41126 6.83497C9.23105 7.25528 8.86683 7.64325 8.36983 8.0046C8.22377 8.13012 8.04925 8.25754 7.86525 8.39067C7.25633 8.83379 6.56394 9.34539 6.80106 9.94636L6.79537 9.93115Z" fill="white" fill-opacity="0.85"/>
</svg>
