<svg width="48" height="48" viewBox="0 0 48 48" fill="none" xmlns="http://www.w3.org/2000/svg">
<path d="M44.8789 35.1202C44.8789 34.2561 45.5781 33.5562 46.4414 33.5562C47.3047 33.5562 48.0039 34.2561 48.0039 35.1202V46.3617C48.0039 47.2258 47.3047 47.9257 46.4414 47.9257H35.0273C34.1641 47.9257 33.4648 47.2258 33.4648 46.3617C33.4648 45.4976 34.1641 44.7977 35.0273 44.7977H42.5195L29.0977 32.0978C28.4727 31.5073 28.4414 30.522 29.0313 29.8925C29.6211 29.2669 30.6055 29.2356 31.2344 29.826L44.8789 42.7371V35.1202ZM35.0859 3.12415C34.2227 3.12415 33.5234 2.42425 33.5234 1.56012C33.5234 0.695996 34.2227 -0.00390625 35.0859 -0.00390625H46.3164C47.1797 -0.00390625 47.8789 0.695996 47.8789 1.56012V12.9814C47.8789 13.8456 47.1797 14.5455 46.3164 14.5455C45.4531 14.5455 44.7539 13.8456 44.7539 12.9814V5.48583L32.0664 18.9208C31.4766 19.5464 30.4922 19.5777 29.8633 18.9873C29.2383 18.3969 29.207 17.4115 29.7969 16.782L42.6953 3.12415H35.0859ZM3.12109 12.8094C3.12109 13.6735 2.42188 14.3734 1.55859 14.3734C0.695313 14.3734 -0.00390625 13.6735 -0.00390625 12.8094V1.56794C-0.00390625 0.703816 0.695313 0.00391389 1.55859 0.00391389H12.9688C13.832 0.00391389 14.5313 0.703816 14.5313 1.56794C14.5313 2.43207 13.832 3.13197 12.9688 3.13197H5.48047L18.9023 15.8319C19.5273 16.4223 19.5586 17.4076 18.9688 18.0371C18.3789 18.6628 17.3945 18.694 16.7656 18.1036L3.12109 5.19257V12.8094ZM12.8672 44.8759C13.7305 44.8759 14.4297 45.5758 14.4297 46.4399C14.4297 47.304 13.7305 48.0039 12.8672 48.0039H1.63672C0.773438 48.0039 0.0742188 47.304 0.0742188 46.4399V35.0147C0.0742188 34.1505 0.773438 33.4506 1.63672 33.4506C2.5 33.4506 3.19922 34.1505 3.19922 35.0147V42.5142L15.8867 29.0792C16.4766 28.4536 17.4609 28.4223 18.0898 29.0127C18.7148 29.6031 18.7461 30.5885 18.1562 31.218L5.25781 44.8759H12.8672Z" fill="white"/>
</svg>
