<svg width="64" height="65" viewBox="0 0 64 65" fill="none" xmlns="http://www.w3.org/2000/svg">
<path d="M51.2604 52.7007C51.1301 52.3788 51.0572 52.0252 51.0572 51.6558C51.0572 51.2864 51.1301 50.9329 51.2604 50.611C51.3958 50.2891 51.5885 49.9936 51.8281 49.7508L51.8437 49.7297C51.9791 49.5925 52.1354 49.4606 52.302 49.3603C52.3906 49.3023 52.4843 49.2495 52.5885 49.202V44.8643H48.1562C48.0208 45.8141 47.5729 46.669 46.927 47.3286C46.1197 48.1466 44.9999 48.6532 43.7656 48.6532H41.0937V60.4843H48.9322C48.9739 60.4157 49.0156 60.3471 49.0624 60.2785C49.1562 60.1413 49.2604 60.0147 49.3749 59.8986C49.6197 59.6505 49.9166 59.4447 50.2499 59.3075C50.5677 59.1756 50.9166 59.1017 51.2812 59.1017C51.6406 59.1017 51.9947 59.1756 52.3124 59.3075C52.6458 59.4447 52.9374 59.6505 53.1874 59.8986C53.4322 60.1466 53.6354 60.4474 53.7708 60.7851C53.901 61.107 53.9739 61.4606 53.9739 61.83C53.9739 62.1941 53.901 62.5424 53.7708 62.8748C53.6354 63.2126 53.4322 63.5133 53.1874 63.7614C52.9427 64.0094 52.6458 64.2152 52.3124 64.3524C51.9947 64.4843 51.6458 64.5582 51.2812 64.5582C50.927 64.5582 50.5885 64.4896 50.2708 64.3577L50.2499 64.3524C49.9166 64.2152 49.6249 64.0094 49.3749 63.7614C49.2239 63.6083 49.0885 63.4289 48.9739 63.2442C48.9114 63.1387 48.8541 63.0226 48.8072 62.9118H39.8958C39.5624 62.9118 39.2656 62.7746 39.0468 62.5529C38.8229 62.326 38.6874 62.0252 38.6874 61.6875V48.6532H32.8541V59.3867C32.9426 59.4342 33.0312 59.4817 33.1197 59.5397C33.2812 59.64 33.4322 59.7666 33.5624 59.8986C33.8124 60.1519 34.0104 60.4474 34.1458 60.7851C34.276 61.107 34.3489 61.4606 34.3489 61.83C34.3489 62.1888 34.2812 62.5318 34.151 62.8537L34.1458 62.8748C34.0104 63.2126 33.8072 63.5081 33.5624 63.7614C33.3176 64.0094 33.0208 64.2152 32.6874 64.3524C32.3697 64.4843 32.0208 64.5582 31.6562 64.5582C31.2968 64.5582 30.9479 64.4843 30.6249 64.3524C30.2916 64.2152 29.9947 64.0094 29.7499 63.7614C29.5051 63.5133 29.302 63.2126 29.1666 62.8748C29.0364 62.5529 28.9635 62.1994 28.9635 61.83C28.9635 61.4711 29.0312 61.1281 29.1614 60.8062L29.1666 60.7851C29.302 60.4474 29.5051 60.1519 29.7499 59.8986C29.8801 59.7666 30.0208 59.6505 30.177 59.5503L30.1979 59.5345C30.2812 59.487 30.3697 59.4395 30.4583 59.392V48.6532H22.677V54.2152C22.677 54.5529 22.5416 54.8537 22.3229 55.0754C22.1041 55.297 21.8072 55.4342 21.4739 55.4342H15.9531C15.9114 55.5186 15.8645 55.5978 15.8124 55.6822C15.7187 55.8247 15.6093 55.9619 15.4843 56.0885L15.4635 56.1096C15.2187 56.3577 14.9218 56.5635 14.5885 56.7007C14.2708 56.8326 13.9218 56.9065 13.5572 56.9065C13.2031 56.9065 12.8645 56.8379 12.5468 56.706L12.526 56.7007C12.1926 56.5635 11.901 56.3577 11.651 56.1096C11.4062 55.8616 11.2031 55.5608 11.0676 55.2231C10.9374 54.9012 10.8645 54.5476 10.8645 54.1782C10.8645 53.8141 10.9374 53.4606 11.0676 53.1334C11.2031 52.7957 11.4062 52.4949 11.651 52.2469C11.9062 52.0041 12.2083 51.7983 12.5416 51.6611C12.8593 51.5292 13.2083 51.4553 13.5729 51.4553C13.9374 51.4553 14.2864 51.5292 14.6041 51.6611C14.9218 51.7983 15.2135 51.9936 15.4531 52.2416L15.4739 52.2574C15.6093 52.3946 15.7395 52.5529 15.8385 52.7218C15.8906 52.8115 15.9479 52.9065 15.9947 53.012H20.276V48.5529C19.427 48.3629 18.6666 47.9302 18.0781 47.3339C17.2916 46.5371 16.8072 45.45 16.8072 44.2574V41.3603H4.02598V49.3023C4.09369 49.3445 4.1614 49.3867 4.22911 49.4342C4.36452 49.5292 4.48431 49.6347 4.60411 49.7508C4.8489 49.9988 5.05202 50.2996 5.18744 50.6374C5.31765 50.9593 5.39056 51.3128 5.39056 51.6822C5.39056 52.0463 5.31765 52.4052 5.18744 52.7271C5.05202 53.0648 4.8489 53.3603 4.60411 53.6136C4.35931 53.8616 4.06244 54.0674 3.72911 54.2046C3.4114 54.3366 3.06244 54.4104 2.69786 54.4104C2.33848 54.4104 1.99473 54.3366 1.66661 54.2046C1.33327 54.0674 1.0364 53.8616 0.791606 53.6136C0.546814 53.3656 0.343689 53.0648 0.208272 52.7271C0.0728556 52.3946 -6.10352e-05 52.041 -6.10352e-05 51.6717C-6.10352e-05 51.3128 0.0676473 50.9698 0.197856 50.6479L0.203064 50.6268C0.338481 50.2891 0.541606 49.9936 0.786397 49.7403C0.937439 49.5872 1.11452 49.45 1.29681 49.3339C1.39577 49.2706 1.51556 49.2126 1.62494 49.1651V40.1413C1.62494 39.8036 1.76036 39.5028 1.97911 39.2812C2.20306 39.0542 2.49994 38.917 2.83327 38.917H16.8072V33.0067H5.10931C5.06244 33.0965 5.01556 33.1862 4.95827 33.2759C4.85931 33.4395 4.73431 33.5925 4.60411 33.7244C4.35411 33.9777 4.06244 34.1783 3.72911 34.3155C3.4114 34.4474 3.06244 34.5213 2.69786 34.5213C2.34369 34.5213 2.00515 34.4527 1.68744 34.3207L1.66661 34.3155C1.33327 34.1783 1.04161 33.9724 0.791606 33.7244C0.546814 33.4764 0.343689 33.1756 0.208272 32.8379C0.078064 32.516 0.0051473 32.1624 0.0051473 31.793C0.0051473 31.4289 0.078064 31.0753 0.208272 30.7482C0.343689 30.4104 0.546814 30.1096 0.791606 29.8616C1.0364 29.6136 1.33327 29.4078 1.66661 29.2706C1.98952 29.1334 2.33327 29.0595 2.70306 29.0595C3.05723 29.0595 3.39577 29.1281 3.71348 29.26L3.73431 29.2653C4.06765 29.4025 4.35931 29.6083 4.60931 29.8564C4.73952 29.9883 4.85411 30.1308 4.95827 30.2891L4.9739 30.3102C5.02077 30.3946 5.06765 30.4843 5.11452 30.574H16.8072V23.2337C16.8072 23.0542 16.8176 22.8748 16.8385 22.6954H10.2135C9.88015 22.6954 9.58327 22.5582 9.36452 22.3366C9.14577 22.1149 9.01036 21.8141 9.01036 21.4764V15.8827C8.92702 15.8405 8.8489 15.793 8.76556 15.7403C8.62494 15.6453 8.48952 15.5345 8.36452 15.4078L8.34369 15.3867C8.0989 15.1387 7.89577 14.8379 7.76036 14.5002C7.63015 14.1783 7.55723 13.8247 7.55723 13.4553C7.55723 13.0965 7.62494 12.7534 7.75515 12.4316L7.76036 12.4104C7.89577 12.0727 8.0989 11.7772 8.34369 11.5239C8.58848 11.2759 8.88536 11.0701 9.21869 10.9329C9.5364 10.8009 9.88536 10.7271 10.2499 10.7271C10.6093 10.7271 10.9583 10.8009 11.2812 10.9329C11.6145 11.0701 11.9114 11.2759 12.1562 11.5239C12.3958 11.7825 12.5989 12.0885 12.7343 12.4263C12.8645 12.7482 12.9374 13.1017 12.9374 13.4711C12.9374 13.8405 12.8645 14.1941 12.7343 14.516C12.5989 14.8379 12.4062 15.1334 12.1666 15.3761L12.151 15.3973C12.0156 15.5345 11.8593 15.6664 11.6874 15.7666C11.5989 15.8194 11.5051 15.8775 11.401 15.925V20.2627H17.9374V20.2943C17.9791 20.2469 18.026 20.1994 18.0676 20.1571C18.8749 19.3392 19.9947 18.8326 21.2291 18.8326H23.7343V4.64263H15.9062C15.8645 4.71123 15.8229 4.77984 15.776 4.84844C15.6822 4.98564 15.5781 5.10701 15.4635 5.22838C15.2187 5.47641 14.9218 5.68221 14.5885 5.81941C14.2708 5.95134 13.9218 6.02522 13.5572 6.02522C13.1979 6.02522 12.8437 5.95134 12.526 5.81941C12.1926 5.68221 11.901 5.47641 11.651 5.22838C11.4062 4.98036 11.2031 4.67957 11.0676 4.34184C10.9374 4.01466 10.8645 3.66638 10.8645 3.29171C10.8645 2.92759 10.9374 2.57931 11.0676 2.24685C11.2031 1.90912 11.4062 1.60833 11.651 1.36031C11.8958 1.11229 12.1926 0.906484 12.526 0.769281C12.8437 0.637355 13.1926 0.563477 13.5572 0.563477C13.9114 0.563477 14.2499 0.632078 14.5676 0.764004L14.5885 0.769281C14.9218 0.906484 15.2135 1.11229 15.4635 1.36031C15.6145 1.51334 15.7499 1.69276 15.8645 1.87746C15.927 1.97772 15.9843 2.0991 16.0364 2.20991H24.9374C25.2708 2.20991 25.5676 2.34712 25.7864 2.56875C26.0104 2.79567 26.1458 3.09646 26.1458 3.43419V18.8326H31.9791V5.74026C31.8906 5.69276 31.802 5.64527 31.7135 5.58722C31.552 5.48696 31.401 5.36031 31.2708 5.22838C31.0208 4.97509 30.8229 4.67957 30.6874 4.34184C30.5572 4.01994 30.4843 3.66638 30.4843 3.29699C30.4843 2.93815 30.552 2.59514 30.6822 2.27324L30.6874 2.25213C30.8229 1.9144 31.026 1.61889 31.2708 1.36559C31.5156 1.11757 31.8124 0.911762 32.1458 0.774558C32.4635 0.642632 32.8124 0.568754 33.177 0.568754C33.5364 0.568754 33.8854 0.642632 34.2083 0.774558C34.5416 0.911762 34.8385 1.11757 35.0833 1.36559C35.3281 1.61361 35.5312 1.9144 35.6666 2.25213C35.7968 2.57403 35.8697 2.92759 35.8697 3.29699C35.8697 3.65582 35.802 3.99883 35.6718 4.32073L35.6666 4.34184C35.5312 4.67957 35.3281 4.97509 35.0833 5.22838C34.9531 5.36031 34.8124 5.47641 34.6562 5.58195L34.6354 5.59778C34.552 5.64527 34.4635 5.69276 34.3749 5.74026V18.8273H42.151V10.9118C42.151 10.574 42.2864 10.2732 42.5051 10.0516C42.7239 9.82997 43.0208 9.69276 43.3541 9.69276H48.8801C48.9218 9.60833 48.9687 9.52918 49.0208 9.44474C49.1145 9.30226 49.2239 9.16506 49.3489 9.03841L49.3697 9.0173C49.6145 8.76928 49.9114 8.56348 50.2447 8.42627C50.5624 8.29435 50.9114 8.22047 51.276 8.22047C51.6301 8.22047 51.9687 8.28907 52.2864 8.421L52.3072 8.42627C52.6406 8.56348 52.9322 8.76928 53.1822 9.0173C53.427 9.26532 53.6302 9.56612 53.7656 9.90385C53.8958 10.2257 53.9687 10.5793 53.9687 10.9487C53.9687 11.3128 53.8958 11.6664 53.7656 11.9936C53.6302 12.3313 53.427 12.6321 53.1822 12.8801C52.9218 13.1228 52.6249 13.3286 52.2916 13.4659C51.9739 13.5978 51.6249 13.6717 51.2604 13.6717C50.8958 13.6717 50.5468 13.5978 50.2291 13.4659C49.9114 13.3286 49.6197 13.1334 49.3801 12.8907L49.3593 12.8748C49.2239 12.7376 49.0937 12.5793 48.9947 12.4104C48.9374 12.3207 48.8854 12.2257 48.8385 12.1202H44.5572V18.8959C45.4791 19.0595 46.302 19.5133 46.9322 20.1519C47.7187 20.9487 48.2031 22.0358 48.2031 23.2284V23.7719H59.9739V15.83C59.9062 15.7878 59.8385 15.7455 59.7708 15.698C59.6354 15.6031 59.5156 15.4975 59.401 15.3814C59.1562 15.1334 58.9531 14.8326 58.8177 14.4949C58.6874 14.173 58.6145 13.8194 58.6145 13.45C58.6145 13.0859 58.6874 12.7271 58.8177 12.4052C58.9531 12.0674 59.1562 11.7719 59.401 11.5186C59.6458 11.2706 59.9427 11.0648 60.276 10.9276C60.5937 10.7957 60.9426 10.7218 61.3072 10.7218C61.6666 10.7218 62.0156 10.7957 62.3385 10.9276C62.6718 11.0648 62.9687 11.2706 63.2135 11.5186C63.4583 11.7666 63.6614 12.0674 63.7968 12.4052C63.927 12.7271 63.9999 13.0806 63.9999 13.45C63.9999 13.8089 63.9322 14.1519 63.802 14.4738L63.7968 14.4949C63.6614 14.8326 63.4583 15.1281 63.2135 15.3814C63.0624 15.5345 62.8854 15.6717 62.7031 15.7878C62.5989 15.8511 62.4843 15.9091 62.3749 15.9619V24.9804C62.3749 25.3181 62.2395 25.6189 62.0208 25.8405C61.7968 26.0674 61.4999 26.2046 61.1666 26.2046H48.2031V32.1149H58.8906C58.9374 32.0252 58.9843 31.9355 59.0416 31.8458C59.1458 31.6822 59.2656 31.5292 59.3958 31.3972C59.6458 31.144 59.9374 30.9434 60.2708 30.8062C60.5885 30.6743 60.9374 30.6004 61.302 30.6004C61.6562 30.6004 61.9947 30.669 62.3124 30.8009L62.3333 30.8062C62.6666 30.9434 62.9583 31.1492 63.2083 31.3972C63.4531 31.6453 63.6562 31.9461 63.7916 32.2838C63.9218 32.6057 63.9947 32.9593 63.9947 33.3286C63.9947 33.6928 63.9218 34.0463 63.7916 34.3735C63.6562 34.7112 63.4531 35.012 63.2083 35.26C62.9635 35.5081 62.6666 35.7139 62.3333 35.8511C62.0156 35.983 61.6666 36.0569 61.302 36.0569C60.9479 36.0569 60.6093 35.9883 60.2916 35.8563L60.2708 35.8511C59.9374 35.7139 59.6458 35.5081 59.3958 35.26C59.2656 35.1281 59.151 34.9856 59.0468 34.8273L59.0312 34.8062C58.9843 34.7218 58.9374 34.6321 58.8906 34.5424H48.2031V42.421H53.7864C54.1197 42.421 54.4166 42.5582 54.6354 42.7798C54.8541 43.0015 54.9895 43.3023 54.9895 43.64V49.2389C55.0729 49.2812 55.151 49.3286 55.2343 49.3867C55.3749 49.4817 55.5104 49.5925 55.6354 49.7192L55.6562 49.7403C55.901 49.9883 56.1041 50.2891 56.2395 50.6268C56.3697 50.9487 56.4427 51.3023 56.4427 51.6717C56.4427 52.0305 56.3749 52.3735 56.2447 52.6954L56.2395 52.7165C56.1041 53.0542 55.901 53.3498 55.6562 53.6031C55.4114 53.8511 55.1145 54.0569 54.7812 54.1941C54.4635 54.326 54.1145 54.3999 53.7499 54.3999C53.3906 54.3999 53.0416 54.326 52.7187 54.1941C52.3854 54.0569 52.0885 53.8511 51.8437 53.6031C51.6041 53.3445 51.3958 53.0384 51.2604 52.7007ZM27.8593 28.078H37.151C37.8749 28.078 38.4635 28.6743 38.4635 29.4078V38.078C38.4635 38.8115 37.8749 39.4078 37.151 39.4078H27.8593C27.1354 39.4078 26.5468 38.8115 26.5468 38.078V29.4078C26.5468 28.6743 27.1354 28.078 27.8593 28.078ZM43.7708 21.1862H21.2343C20.7187 21.1862 20.2447 21.4025 19.901 21.7561C19.5312 22.1308 19.302 22.6532 19.302 23.2337V44.2521C19.302 44.8326 19.5312 45.355 19.901 45.7297C20.2499 46.0833 20.7187 46.2996 21.2343 46.2996H43.7708C44.2864 46.2996 44.7604 46.0833 45.1041 45.7297C45.4739 45.355 45.7031 44.8326 45.7031 44.2521V23.2337C45.7031 22.6532 45.4739 22.1308 45.1041 21.7561C44.7604 21.4025 44.2864 21.1862 43.7708 21.1862Z" fill="#FD863D"/>
</svg>
