<svg width="62" height="57" viewBox="0 0 62 57" fill="none" xmlns="http://www.w3.org/2000/svg">
<path d="M31.1024 18.8514V19.5645C32.2933 17.7369 33.6811 16.2949 35.2859 15.1486C37.8595 13.2999 40.9429 12.2435 44.5965 11.5673C45.1819 11.4617 45.7421 11.8684 45.843 12.4864C45.9439 13.0992 45.5554 13.6855 44.9649 13.7911C41.599 14.4091 38.7881 15.3652 36.497 17.0079C34.65 18.3338 33.1159 20.1297 31.8745 22.5859C40.6401 23.505 45.8279 22.607 49.5976 19.7388C53.3319 16.8917 55.8552 11.9741 59.1505 4.89601C58.1816 4.95411 57.1723 5.00693 56.1479 5.05447C49.5067 5.37668 42.2298 5.73059 37.688 9.91404C36.5273 10.9863 35.3918 12.2699 34.2867 13.7753C33.2118 15.2279 32.152 16.9182 31.1024 18.8514ZM28 13.0728C27.6316 12.5551 27.0601 12.1431 26.606 11.8103C25.7127 11.1606 24.6126 10.7803 23.3056 10.4792C22.7253 10.3472 22.3518 9.74501 22.478 9.13756C22.6041 8.53012 23.1794 8.13924 23.7598 8.27129C25.3191 8.63048 26.8393 9.63937 28 10.4792C28.1778 10.6079 28.1009 9.1851 28 8.921C27.4499 7.50538 26.1821 5.69416 25.0668 4.66942C23.78 3.48622 21.5 3.06365 20.5856 3.06365L11.5 2.56365L14.2573 7.56365C15.6905 10.2523 18.2087 12.3491 20.5856 13.0728C22.6798 13.7066 25.1992 13.3157 28 13.0728ZM28.6851 15.7614C25.3444 16.0994 22.3518 16.0519 19.7378 15.2543C16.6796 14.3246 14.2018 12.4125 12.3901 8.98966C12.38 8.96854 12.3649 8.94213 12.3548 8.921L9.31685 2.3553C8.99893 1.66862 9.27648 0.84461 9.93252 0.517117C10.1445 0.411475 10.3665 0.369218 10.5835 0.385064L20.7521 1.04005C20.8076 1.04533 20.8631 1.05061 20.9186 1.06118L20.9439 1.06646C22.8413 1.31472 24.9205 1.58939 26.8028 3.32721C28.241 4.65303 29.2806 6.30106 29.977 8.09698C30.739 10.0619 31.0822 12.2012 31.0822 14.256C31.0822 14.4091 31.0569 14.557 31.0166 14.6944C31.5313 13.8862 32.0511 13.1256 32.5759 12.4125C33.7871 10.7592 35.0184 9.36998 36.2548 8.22904C41.3618 3.52794 49.0425 3.1529 56.0469 2.81485C57.6668 2.73562 59.2464 2.66166 60.836 2.51905C61.0227 2.5032 61.2145 2.53489 61.3911 2.62469C61.926 2.89408 62.1531 3.57019 61.8907 4.1301C58.0403 12.4547 55.3152 18.1595 50.8491 21.5612C46.494 24.8783 40.6654 25.8714 30.8349 24.7463V33.784C34.9427 27.7888 38.9597 27.6884 45.52 27.5247C46.923 27.4877 48.4571 27.4507 50.2031 27.3398C50.3798 27.3292 50.5614 27.3609 50.733 27.4507C51.2679 27.7201 51.495 28.3962 51.2326 28.9561C48.553 34.7559 46.817 38.3531 43.8547 40.3867C41.0186 42.3358 37.2842 42.6897 30.8298 41.9608V56.7455H28.67V42.2777C19.8135 43.2866 14.439 42.4362 10.3766 39.4782C6.22338 36.4409 3.60933 31.3014 0.107094 23.7321C-0.150274 23.1722 0.0717691 22.4961 0.606692 22.2267C0.783318 22.1369 0.970036 22.1052 1.15675 22.1158C2.59499 22.232 4.06351 22.2954 5.57239 22.3588C12.052 22.6281 19.3593 22.9292 23.9667 27.1708C26.1266 29.1569 27.6455 30.8102 28.6801 32.6325L28.6851 15.7614ZM26.3183 40.2494C24.8448 38.221 23.2905 36.6998 21.6352 35.5113C19.6015 34.0534 17.3861 33.0762 14.9588 32.2733C14.3885 32.0884 14.0757 31.4493 14.2573 30.8577C14.439 30.2608 15.0446 29.9333 15.6098 30.1182C18.2188 30.9792 20.6158 32.0409 22.8514 33.6467C24.7993 35.0412 26.606 36.8424 28.3066 39.2616C28.1805 37.2755 27.8222 35.7331 27.1358 34.3492C26.2477 32.548 24.7792 30.9158 22.5436 28.8611C18.5014 25.1424 11.6079 24.8572 5.4866 24.6037C4.58329 24.5667 3.70016 24.5297 2.85236 24.4822C5.80958 30.7785 8.1814 35.1151 11.6231 37.6188C14.9083 40.0117 19.3038 40.8357 26.3183 40.2494ZM31.718 36.4832C32.5254 35.7331 33.4338 35.0993 34.4027 34.5605C36.6332 33.3192 39.1968 32.5797 41.5687 32.1466C42.1541 32.0409 42.7142 32.4476 42.8151 33.0656C42.9161 33.6784 42.5275 34.2647 41.9371 34.3703C39.762 34.7718 37.4205 35.4426 35.412 36.5571C33.9485 37.3706 32.6667 38.427 31.7735 39.7898C37.2641 40.3656 40.4332 40.0539 42.689 38.5062C44.8943 36.9903 46.4234 34.1432 48.5126 29.6851C47.4881 29.7273 46.5091 29.7537 45.5806 29.7749C39.2877 29.9281 35.6088 30.0231 31.718 36.4832Z" fill="#FD863D"/>
</svg>
