<svg width="60" height="59" viewBox="0 0 60 59" fill="none" xmlns="http://www.w3.org/2000/svg">
<path d="M13.088 28.9062C12.7677 29.5651 11.9623 29.8421 11.2927 29.5269C10.6231 29.2118 10.3417 28.4239 10.6619 27.7602C11.3703 26.2991 12.2437 24.9287 13.253 23.6682C14.2719 22.398 15.4267 21.2473 16.6931 20.235C17.2705 19.7719 18.1196 19.8578 18.5854 20.426C19.0561 20.9942 18.9687 21.8298 18.3913 22.2882C17.2705 23.1859 16.2516 24.1982 15.3636 25.3059C14.4757 26.4185 13.7139 27.6217 13.088 28.9062ZM46.6402 44.7635L48.2026 49.2901L48.9886 46.6018L48.6053 46.1864C48.4306 45.9381 48.3918 45.7185 48.4889 45.5323C48.6975 45.1264 49.1293 45.2028 49.5321 45.2028C49.9542 45.2028 50.4782 45.1264 50.6092 45.6469C50.6529 45.8188 50.5995 46.005 50.4734 46.1912L50.0901 46.6066L50.8761 49.2949L52.2929 44.7683C53.3167 45.6755 56.3396 45.857 57.4652 46.4729C57.8194 46.6687 58.1445 46.917 58.4017 47.2512C58.7947 47.7621 59.0325 48.4258 59.1004 49.271L59.3333 51.7301C59.2751 52.3269 58.9306 52.6707 58.2513 52.7232H49.5369H40.677C39.9977 52.6707 39.6532 52.3269 39.595 51.7301L39.8279 49.271C39.8958 48.4258 40.1336 47.7621 40.5266 47.2512C40.7837 46.917 41.1088 46.6687 41.463 46.4729C42.5936 45.8522 45.6164 45.6707 46.6402 44.7635ZM7.70701 44.7635L9.26939 49.2901L10.0554 46.6018L9.67211 46.1864C9.49744 45.9381 9.45862 45.7185 9.55566 45.5323C9.7643 45.1264 10.1961 45.2028 10.5989 45.2028C11.021 45.2028 11.545 45.1264 11.676 45.6469C11.7197 45.8188 11.6663 46.005 11.5402 46.1912L11.1569 46.6066L11.9429 49.2949L13.3597 44.7683C14.3835 45.6755 17.4063 45.857 18.532 46.4729C18.8862 46.6687 19.2113 46.917 19.4685 47.2512C19.8615 47.7621 20.0993 48.4258 20.1672 49.271L20.4001 51.7301C20.3419 52.3269 19.9974 52.6707 19.3181 52.7232H10.6086H1.74864C1.06935 52.6707 0.724851 52.3269 0.666626 51.7301L0.899526 49.271C0.967456 48.4258 1.20521 47.7621 1.59823 47.2512C1.85539 46.917 2.18048 46.6687 2.53468 46.4729C3.66037 45.8522 6.68807 45.6707 7.70701 44.7635ZM6.96464 38.2936C7.08595 38.327 7.20725 38.327 7.3334 38.3031L7.11021 36.5651C7.22666 36.1353 7.40133 35.8011 7.62938 35.5576C7.87199 35.2997 8.17282 35.1422 8.53672 35.0753C9.01708 35.0419 9.16264 35.3857 9.63815 35.6865C11.0938 36.6033 12.3262 36.9136 14.1263 36.9327L13.9031 38.0357C13.8692 38.0835 13.8546 38.1408 13.8595 38.2029C13.8595 38.2124 13.8643 38.2267 13.8643 38.2363L13.8352 38.3891C13.8837 38.3938 13.9323 38.3938 13.9759 38.3938C14.0196 38.4225 14.0778 38.4368 14.136 38.432C14.4466 38.4034 14.6407 38.432 14.6892 38.5371C14.762 38.6756 14.6989 38.9621 14.4951 39.4204L13.5101 41.0153C13.1462 41.6073 12.7726 42.2042 12.3019 42.6387C11.8507 43.0541 11.2927 43.3311 10.5309 43.3311C9.82738 43.3311 9.2985 43.0637 8.85696 42.6674C8.40086 42.2567 8.0321 41.6981 7.68275 41.1489L6.80938 39.7786L6.80452 39.7738C6.53766 39.3822 6.39695 39.0385 6.38724 38.7806C6.38239 38.6947 6.39695 38.6183 6.42606 38.5514C6.45032 38.4941 6.49399 38.4464 6.55222 38.4129C6.65411 38.3413 6.78997 38.3031 6.96464 38.2936ZM14.7328 37.9689L14.7862 35.7438C14.7183 34.8366 14.4175 34.1538 13.9323 33.6333C12.7386 32.3632 10.5164 32.0385 8.8327 32.6354C8.55128 32.7356 8.27956 32.8645 8.03696 33.0173C7.34311 33.4519 6.78512 34.0821 6.56192 34.87C6.50855 35.0562 6.47458 35.2424 6.45517 35.4287C6.41636 36.207 6.44062 37.1428 6.49399 37.8829C6.41636 37.9116 6.34358 37.9498 6.2805 37.9928C6.14464 38.0835 6.04275 38.1981 5.97967 38.3413C5.91659 38.475 5.88748 38.623 5.89233 38.7902C5.90204 39.1435 6.06701 39.5732 6.3921 40.046L7.26547 41.4116C7.63423 41.9893 8.0224 42.5766 8.52702 43.0302C9.05104 43.503 9.69152 43.8229 10.5406 43.8229C11.4528 43.8229 12.1176 43.4934 12.6561 42.9968C13.1753 42.5193 13.5683 41.8938 13.9517 41.2683L14.9463 39.6544C14.9512 39.6449 14.956 39.6353 14.9609 39.6258C15.2326 39.0146 15.2908 38.5944 15.1501 38.3127C15.0628 38.1408 14.9269 38.031 14.7328 37.9689ZM27.0475 6.17303C27.1688 6.20646 27.2901 6.20646 27.4162 6.18258L27.193 4.44453C27.3046 4.01479 27.4793 3.68055 27.7122 3.43703C27.9548 3.17919 28.2556 3.02162 28.6195 2.95477C29.0999 2.92135 29.2455 3.26514 29.721 3.56595C31.1766 4.48273 32.409 4.7931 34.2092 4.81219L33.986 5.91519C33.952 5.96294 33.9374 6.02024 33.9423 6.08231C33.9423 6.09186 33.9471 6.10618 33.9471 6.11573L33.918 6.26853C33.9665 6.2733 34.0151 6.2733 34.0587 6.2733C34.1024 6.30195 34.1606 6.31628 34.2189 6.3115C34.5294 6.28285 34.7235 6.3115 34.772 6.41178C34.8448 6.55025 34.7817 6.83674 34.5779 7.29513L33.5929 8.88993C33.229 9.48202 32.8554 10.0789 32.3848 10.5134C31.9335 10.9288 31.3755 11.2057 30.6137 11.2057C29.9102 11.2057 29.3813 10.9384 28.9398 10.542C28.4837 10.1314 28.1149 9.57274 27.7656 9.02363L26.8922 7.65324L26.8873 7.64847C26.6205 7.25693 26.4798 6.91314 26.4701 6.65529C26.4652 6.56935 26.4798 6.49295 26.5089 6.4261C26.5331 6.3688 26.5768 6.32105 26.635 6.28763C26.7369 6.22078 26.8728 6.18258 27.0475 6.17303ZM27.7898 12.643L29.3522 17.1696L30.1382 14.4813L29.7549 14.0659C29.5803 13.8176 29.5414 13.598 29.6385 13.4117C29.8471 13.0059 30.279 13.0823 30.6817 13.0823C31.1038 13.0823 31.6278 13.0059 31.7588 13.5263C31.8025 13.6982 31.7491 13.8844 31.623 14.0707L31.2397 14.4861L32.0257 17.1743L33.4474 12.643C34.4712 13.5502 37.494 13.7317 38.6197 14.3476C38.9739 14.5434 39.299 14.7917 39.5562 15.1259C39.9492 15.6368 40.1869 16.3005 40.2549 17.1457L40.4878 19.6047C40.4295 20.2016 40.085 20.5454 39.4057 20.5979H30.6914H21.8315C21.1522 20.5454 20.8077 20.2016 20.7494 19.6047L20.9823 17.1457C21.0503 16.3005 21.288 15.6368 21.681 15.1259C21.9382 14.7917 22.2633 14.5434 22.6175 14.3476C23.7432 13.7317 26.7709 13.5502 27.7898 12.643ZM34.8157 5.85312L34.869 3.62803C34.8011 2.7208 34.5003 2.038 34.0151 1.51754C32.8215 0.24742 30.5992 -0.0772707 28.9155 0.519588C28.6341 0.61986 28.3672 0.748782 28.1198 0.901577C27.4308 1.33132 26.8679 1.96637 26.6447 2.74945C26.5914 2.93567 26.5574 3.12189 26.538 3.30811C26.4992 4.08642 26.5234 5.02229 26.5768 5.76239C26.4992 5.79104 26.4264 5.82924 26.3633 5.87222C26.2275 5.96294 26.1256 6.07754 26.0625 6.22078C25.9994 6.35448 25.9703 6.5025 25.9751 6.66962C25.9849 7.02296 26.1498 7.4527 26.4749 7.92541L27.3483 9.29102C27.717 9.86878 28.1052 10.4561 28.6098 10.9097C29.1339 11.3824 29.7743 11.7023 30.6235 11.7023C31.5356 11.7023 32.2004 11.3729 32.739 10.8763C33.2581 10.394 33.6512 9.77328 34.0345 9.14778L35.0292 7.53387C35.034 7.52432 35.0389 7.51477 35.0437 7.50522C35.3154 6.89404 35.3736 6.47385 35.2329 6.19213C35.1456 6.02024 35.0097 5.91041 34.8157 5.85312ZM45.893 38.2936C45.7183 38.3031 45.5873 38.3413 45.4903 38.4034C45.432 38.4416 45.3932 38.4893 45.3641 38.5419C45.335 38.6039 45.3204 38.6803 45.3253 38.7711C45.335 39.0337 45.4709 39.3727 45.7426 39.7642L45.7474 39.769L46.6208 41.1394C46.9702 41.6885 47.3389 42.2472 47.795 42.6578C48.2317 43.0541 48.7654 43.3167 49.469 43.3215C50.2308 43.3215 50.7888 43.0446 51.24 42.6292C51.7107 42.1946 52.0843 41.6026 52.4482 41.0057L53.4331 39.4109C53.6369 38.9525 53.7 38.666 53.6272 38.5275C53.5739 38.4225 53.3846 38.3986 53.0741 38.4225C53.0159 38.4273 52.9625 38.4129 52.914 38.3843C52.8655 38.3843 52.8169 38.3843 52.7733 38.3795L52.8024 38.2267C52.7975 38.2172 52.7975 38.2076 52.7975 38.1933C52.7927 38.1312 52.8072 38.0739 52.8412 38.0262L53.0644 36.9232C51.2643 36.8993 50.0318 36.5937 48.5762 35.6769C48.0958 35.3761 47.9551 35.0323 47.4748 35.0658C47.1109 35.1326 46.81 35.295 46.5674 35.548C46.3345 35.7915 46.1599 36.1258 46.0483 36.5555L46.2715 38.2936C46.1356 38.327 46.0143 38.3222 45.893 38.2936ZM53.6612 37.9689C53.8553 38.0262 53.9911 38.136 54.0785 38.3079C54.2192 38.5896 54.161 39.0146 53.8892 39.621C53.8844 39.6305 53.8795 39.6401 53.8747 39.6496L52.88 41.2635C52.4967 41.8843 52.1037 42.5098 51.5845 42.992C51.0459 43.4886 50.3812 43.8229 49.469 43.8181C48.6199 43.8181 47.9794 43.4982 47.4554 43.0255C46.9508 42.5719 46.5626 41.9798 46.1938 41.4068L45.3204 40.0412C45.0002 39.5685 44.8352 39.1387 44.8207 38.7854C44.8158 38.6183 44.8449 38.4655 44.908 38.3366C44.9759 38.1981 45.073 38.0787 45.2088 37.988C45.2719 37.945 45.3447 37.9116 45.4223 37.8782C45.3641 37.1381 45.3447 36.207 45.3835 35.4239C45.4029 35.2377 45.4369 35.0514 45.4903 34.8652C45.7135 34.0821 46.2763 33.4471 46.9653 33.0126C47.2079 32.8598 47.4796 32.7309 47.761 32.6306C49.4399 32.0337 51.667 32.3584 52.8606 33.6285C53.3458 34.1442 53.6515 34.8318 53.7146 35.739L53.6612 37.9689ZM43.1224 22.5174C42.5548 22.0495 42.482 21.2139 42.9575 20.6552C43.433 20.0965 44.2821 20.0249 44.8498 20.4929C45.1215 20.7173 45.335 20.8987 45.4951 21.042C45.6892 21.2139 45.893 21.4096 46.1162 21.6197C46.9313 22.4124 47.6834 23.2527 48.353 24.1409C49.0226 25.029 49.634 25.9744 50.1725 26.9724C50.517 27.6217 50.2647 28.4239 49.6097 28.7629C48.9498 29.102 48.1347 28.8537 47.7902 28.2091C47.3292 27.3496 46.7955 26.5187 46.1938 25.7309C45.5873 24.9335 44.9323 24.1886 44.2287 23.5106C44.0686 23.353 43.8842 23.1859 43.6853 23.0044C43.4475 22.7944 43.2583 22.632 43.1224 22.5174ZM36.8196 55.2539C37.5231 55.0199 38.2849 55.3972 38.5227 56.0895C38.7604 56.7819 38.3771 57.5315 37.6735 57.7655C36.5527 58.1379 35.3931 58.4244 34.1994 58.6106C33.0204 58.8016 31.8219 58.8971 30.6186 58.8971C29.391 58.8971 28.1731 58.7969 26.9747 58.6011C25.7471 58.4005 24.5632 58.1045 23.4326 57.7225C22.7291 57.4838 22.3506 56.7293 22.5932 56.037C22.8358 55.3446 23.6025 54.9722 24.306 55.2109C25.3153 55.55 26.3536 55.8126 27.4017 55.9845C28.4352 56.1516 29.5075 56.2423 30.6137 56.2423C31.7006 56.2423 32.7535 56.1564 33.7628 55.994C34.8157 55.8317 35.8346 55.5786 36.8196 55.2539Z" fill="#FD863D"/>
</svg>
