<svg width="18" height="24" viewBox="0 0 18 24" fill="none" xmlns="http://www.w3.org/2000/svg">
<path fill-rule="evenodd" clip-rule="evenodd" d="M13.3769 20.4842C12.3166 21.644 11.0819 22.6828 9.6955 23.5229C9.5248 23.6477 9.29341 23.6629 9.10375 23.5418C7.05538 22.2419 5.33514 20.681 3.98284 18.9838C2.11655 16.649 0.942534 14.0606 0.540448 11.5668C0.130775 9.03903 0.513895 6.60583 1.77516 4.62861C2.27207 3.84718 2.90745 3.13576 3.68127 2.52084C5.46031 1.10746 7.49161 0.360089 9.51721 0.375225C11.467 0.390362 13.392 1.11503 15.0554 2.63058C15.6395 3.16036 16.1308 3.76771 16.5329 4.42616C17.889 6.65502 18.181 9.49691 17.5855 12.3767C16.9975 15.2223 15.5371 18.1134 13.3769 20.4785V20.4842ZM9.1303 4.87079C11.5352 4.87079 13.4831 6.81585 13.4831 9.2131C13.4831 11.6123 11.5333 13.5554 9.1303 13.5554C6.72537 13.5554 4.77753 11.6123 4.77753 9.2131C4.77563 6.81395 6.72537 4.87079 9.1303 4.87079Z" fill="#110B11"/>
</svg>
