<svg width="178" height="68" viewBox="0 0 178 68" fill="none" xmlns="http://www.w3.org/2000/svg">
<g clip-path="url(#clip0)">
<path d="M83.1165 17.0547C73.7728 25.543 66.6294 34.3621 64.0466 43.4835H57.1992C55.3001 36.2197 51.0198 29.8236 44.0468 26.9968C50.3466 28.2994 55.3551 31.9704 60.8613 39.0987C66.2627 30.7954 73.9588 23.1747 83.1165 17.0547Z" fill="#FD863D"/>
<path d="M83.1165 17.0547C82.6241 17.508 82.1447 17.9926 81.6365 18.485C81.1283 18.9774 80.6621 19.4594 80.1696 19.944C79.203 20.921 78.2417 21.9059 77.3144 22.9194C75.4493 24.9446 73.6872 27.0445 72.0282 29.2191C70.3761 31.3964 68.8877 33.6918 67.5751 36.0869C66.2651 38.47 65.2266 40.9911 64.4788 43.6033L64.3793 43.9316H64.0414L57.194 43.9681H56.8273L56.733 43.6086C56.2682 41.8755 55.6548 40.1854 54.8993 38.5568C54.1516 36.9329 53.2332 35.3924 52.1593 33.9609C51.0884 32.5365 49.8373 31.2554 48.437 30.1492C47.0358 29.0498 45.4888 28.1476 43.8398 27.4683L38.6008 25.3293L44.1515 26.4783C45.9264 26.8471 47.6502 27.4271 49.2858 28.2056C50.9141 28.9864 52.4484 29.9478 53.8594 31.0715C55.2616 32.1897 56.5752 33.4135 57.7886 34.7321C58.9989 36.0367 60.1425 37.401 61.2149 38.8199L60.5051 38.8486C63.4422 34.4576 66.8596 30.4041 70.6949 26.7623C72.6019 24.9385 74.6084 23.2268 76.6804 21.6037C77.2043 21.2024 77.7282 20.796 78.2521 20.4026L79.85 19.2406L81.4767 18.1229C82.0321 17.7633 82.5926 17.4168 83.1165 17.0547ZM83.1165 17.0547C82.5586 17.4351 82.0321 17.8363 81.5134 18.2063L79.9417 19.3891L78.3884 20.6006C77.8645 21.0096 77.372 21.4317 76.8638 21.846C74.8494 23.529 72.9215 25.3085 71.0747 27.1635C69.228 29.0185 67.4729 30.9621 65.8226 32.9891C64.1752 35.0129 62.6439 37.1274 61.2359 39.3227L60.9111 39.8438L60.5286 39.3618C58.3571 36.6158 56.0126 33.9843 53.2648 31.8584C51.8999 30.7928 50.4226 29.8782 48.8588 29.1305C47.2936 28.3897 45.6446 27.8387 43.9472 27.4892L44.2485 26.5122C45.9916 27.2214 47.6243 28.1741 49.0972 29.3416C50.5635 30.508 51.8726 31.8574 52.9923 33.3564C54.1054 34.8481 55.0555 36.4533 55.8266 38.1451C56.5919 39.8317 57.2055 41.5824 57.6603 43.3767L57.1966 43.0197L64.044 43.0562L63.617 43.3767C64.424 40.7164 65.5294 38.1548 66.9123 35.7404C68.2846 33.3383 69.8445 31.0472 71.5777 28.8882C73.2996 26.7358 75.1358 24.6764 77.0786 22.7187C78.0426 21.7313 79.0354 20.7777 80.036 19.832C80.5416 19.3656 81.0498 18.8915 81.5553 18.4407C82.0609 17.99 82.6005 17.5341 83.1165 17.0547Z" fill="#FD863D"/>
<path d="M166.165 34.9869C166.165 34.9869 160.14 38.0455 158.364 43.4829H153.296C151.428 38.5718 145.728 33.1475 145.728 33.1475C145.728 33.1475 152.494 37.3473 155.705 42.2506C159.126 37.8423 166.165 34.9869 166.165 34.9869Z" fill="#FD863D"/>
<path d="M166.165 34.9873C164.484 35.998 162.955 37.24 161.623 38.6765C160.964 39.3874 160.376 40.1605 159.868 40.9848C159.362 41.8001 158.962 42.6754 158.676 43.5902L158.608 43.8091H158.364C156.675 43.8481 154.985 43.8664 153.295 43.8924H153.034L152.921 43.6319C152.513 42.667 152.024 41.7379 151.459 40.8546C150.892 39.9628 150.28 39.1002 149.626 38.2701C148.976 37.4311 148.292 36.6156 147.582 35.8262C146.872 35.0368 146.131 34.263 145.385 33.5231L141.848 30.0371L146.018 32.7128C146.998 33.3407 147.92 33.9999 148.837 34.6929C149.754 35.3859 150.629 36.1206 151.483 36.884C152.34 37.6492 153.155 38.4597 153.924 39.3122C154.697 40.171 155.398 41.0911 156.02 42.0635L155.446 42.04C156.141 41.1979 156.919 40.4264 157.767 39.7369C158.606 39.0529 159.489 38.4237 160.41 37.8532C161.322 37.2832 162.264 36.7614 163.231 36.29C164.195 35.821 165.162 35.3599 166.165 34.9873ZM166.165 34.9873C165.193 35.4406 164.25 35.9513 163.323 36.4828C162.396 37.0143 161.489 37.5901 160.622 38.1971C159.752 38.8042 158.917 39.461 158.123 40.1642C157.73 40.5185 157.353 40.8832 156.992 41.2662C156.633 41.6469 156.297 42.047 155.983 42.4647L155.695 42.8503L155.412 42.4412C154.773 41.5323 154.062 40.6759 153.285 39.8802C152.499 39.0803 151.695 38.3169 150.844 37.5848C149.992 36.8527 149.11 36.1649 148.211 35.5006C147.313 34.8362 146.377 34.1822 145.453 33.5934L146.087 32.7832C146.872 33.5439 147.616 34.3464 148.337 35.1514C149.057 35.9565 149.749 36.8032 150.409 37.6682C151.067 38.5402 151.679 39.4455 152.242 40.3804C152.816 41.3206 153.298 42.3135 153.681 43.3453L153.295 43.0848C154.985 43.1108 156.675 43.1291 158.364 43.1681L158.052 43.3922C158.392 42.4433 158.851 41.5409 159.417 40.7061C159.98 39.8822 160.625 39.1167 161.343 38.4212C162.763 37.0399 164.39 35.8852 166.165 34.9977V34.9873Z" fill="#FD863D"/>
<path d="M94.8885 17.0547C104.232 25.543 111.376 34.3621 113.958 43.4835H120.806C122.705 36.2197 126.985 29.8236 133.958 26.9968C127.672 28.2994 122.65 31.9704 117.144 39.0987C111.742 30.7954 104.046 23.1747 94.8885 17.0547Z" fill="#FD863D"/>
<path d="M94.8885 17.0547C95.4124 17.5341 95.9364 17.9848 96.4393 18.4277C96.9422 18.8706 97.453 19.3526 97.9586 19.819C98.9592 20.7647 99.952 21.7183 100.916 22.7057C102.859 24.6633 104.695 26.7228 106.417 28.8752C108.15 31.0342 109.71 33.3253 111.082 35.7273C112.465 38.1418 113.571 40.7033 114.378 43.3637L113.951 43.0432L120.798 43.0067L120.334 43.3637C120.789 41.5694 121.403 39.8187 122.168 38.1321C122.939 36.4403 123.889 34.835 125.002 33.3434C126.126 31.8482 127.439 30.5032 128.908 29.3416C130.384 28.179 132.018 27.2308 133.762 26.5252L134.063 27.5022C132.368 27.8485 130.721 28.3961 129.157 29.1332C127.593 29.8808 126.116 30.7954 124.751 31.861C122.003 33.9869 119.659 36.6184 117.487 39.3644L117.105 39.8464L116.78 39.3253C115.37 37.128 113.835 35.0125 112.182 32.9891C110.532 30.9647 108.777 29.0159 106.943 27.1635C105.11 25.3111 103.148 23.529 101.141 21.846C100.633 21.4317 100.133 21.0096 99.6167 20.6006L98.0634 19.3891L96.4917 18.2063C95.973 17.8337 95.4465 17.4351 94.8885 17.0547ZM94.8885 17.0547C95.4124 17.4168 95.973 17.7633 96.5388 18.1333L98.1655 19.251L99.7634 20.413C100.287 20.8064 100.811 21.2128 101.335 21.6141C103.407 23.2372 105.414 24.9515 107.321 26.7727C111.156 30.4129 114.573 34.4647 117.511 38.8538L116.801 38.8251C117.877 37.4156 119.014 36.0452 120.227 34.7373C121.44 33.4187 122.754 32.1949 124.156 31.0768C125.567 29.953 127.102 28.9916 128.73 28.2109C130.365 27.4323 132.089 26.8523 133.864 26.4835L139.41 25.3215L134.171 27.4605C132.521 28.1423 130.974 29.047 129.573 30.1492C128.173 31.2562 126.922 32.5382 125.851 33.9635C124.777 35.395 123.859 36.9355 123.111 38.5594C122.356 40.188 121.742 41.8781 121.277 43.6112L121.183 43.9707H120.816L113.958 43.9394H113.626L113.537 43.619C112.789 41.0067 111.75 38.4857 110.44 36.1025C109.128 33.7075 107.639 31.412 105.987 29.2348C104.333 27.0481 102.568 24.9455 100.701 22.935C99.7739 21.9215 98.8126 20.9367 97.846 19.9597C97.3535 19.4751 96.882 18.9879 96.379 18.5007C95.8761 18.0135 95.381 17.508 94.8885 17.0547Z" fill="#FD863D"/>
<path d="M11.8401 34.9869C11.8401 34.9869 17.8649 38.0455 19.641 43.4829H24.7097C26.5774 38.5718 32.2774 33.1475 32.2774 33.1475C32.2774 33.1475 25.5112 37.3473 22.2997 42.2506C18.8787 37.8423 11.8401 34.9869 11.8401 34.9869Z" fill="#FD863D"/>
<path d="M11.8401 34.9873C13.6152 35.8747 15.2418 37.0295 16.6626 38.4107C17.3797 39.1063 18.0247 39.8718 18.5879 40.6956C19.1545 41.5304 19.613 42.4329 19.9527 43.3818L19.6409 43.1577C21.3305 43.1186 23.0201 43.1004 24.7097 43.0743L24.3246 43.3349C24.7074 42.303 25.1889 41.3102 25.7627 40.37C26.3265 39.4351 26.9385 38.5298 27.5964 37.6578C28.2565 36.7893 28.9471 35.9504 29.6684 35.141C30.3887 34.3255 31.1222 33.5335 31.9185 32.7727L32.5524 33.583C31.6199 34.1718 30.69 34.8232 29.7941 35.4901C28.8982 36.1571 28.0129 36.8527 27.1615 37.5744C26.3102 38.2961 25.4981 39.0699 24.7202 39.8697C23.9434 40.6654 23.2321 41.5219 22.5931 42.4308L22.3102 42.8399L22.0221 42.4543C21.7077 42.04 21.3698 41.6388 21.0136 41.2558C20.6573 40.8728 20.2749 40.5081 19.8819 40.1537C19.0879 39.4506 18.2535 38.7938 17.3829 38.1867C16.5098 37.5805 15.6095 37.0091 14.6822 36.4724C13.7549 35.9513 12.8119 35.4406 11.8401 34.9873ZM11.8401 34.9873C12.8466 35.3694 13.832 35.8042 14.7923 36.29C15.7562 36.7668 16.6993 37.2904 17.6135 37.8532C18.5344 38.4237 19.4173 39.0529 20.2565 39.7369C21.1048 40.4264 21.8822 41.1979 22.5774 42.04L22.0037 42.0635C22.6257 41.0911 23.3266 40.171 24.0993 39.3122C24.8687 38.4598 25.6836 37.6492 26.5407 36.884C27.3947 36.1206 28.2722 35.3807 29.1864 34.6929C30.1006 34.0051 31.02 33.3407 32.005 32.7128L36.1752 30.0371L32.6363 33.5101C31.8897 34.2474 31.1484 35.0238 30.4385 35.8132C29.7286 36.6026 29.0449 37.4181 28.3953 38.257C27.7406 39.0872 27.1286 39.9498 26.5617 40.8415C25.9911 41.7273 25.4977 42.66 25.0869 43.6293L24.9742 43.8898H24.7123C23.0227 43.8638 21.3331 43.8455 19.6436 43.8065H19.4L19.3318 43.5876C19.046 42.6728 18.6456 41.7975 18.14 40.9822C17.6318 40.1579 17.044 39.3848 16.3849 38.6739C15.0532 37.2374 13.524 35.9954 11.8427 34.9847L11.8401 34.9873Z" fill="#FD863D"/>
<path d="M177.999 28.4997C174.091 28.8601 170.16 28.8871 166.248 28.5805C162.321 28.289 158.414 27.775 154.547 27.0407C146.814 25.6 139.283 23.4922 131.935 21.3767C124.587 19.2611 117.379 17.1482 110.219 15.6032C103.06 14.0582 95.972 13.0838 88.9046 13.0317C81.8372 12.9796 74.8091 13.8654 67.6867 15.4078C60.5643 16.9502 53.3764 19.0918 46.0418 21.2464C38.7072 23.4011 31.1919 25.5765 23.4592 27.0564C19.5909 27.8089 15.6809 28.3309 11.75 28.6196C7.83456 28.9297 3.89897 28.8879 -0.00891113 28.4945C3.75792 27.4524 7.41998 26.3321 11.0087 25.0659C14.5974 23.7997 18.1128 22.3954 21.5967 20.9207C28.5646 17.9819 35.4093 14.7122 42.4898 11.6144C49.5703 8.51661 56.897 5.56994 64.6717 3.40488C68.5982 2.30271 72.5915 1.45076 76.6271 0.85423C78.665 0.560692 80.7196 0.339237 82.7907 0.189863C84.8575 0.0517786 86.9426 -0.0133559 89.0173 0.00227631C91.0919 0.0179085 93.1587 0.122123 95.2124 0.291472C97.2661 0.460821 99.3119 0.70833 101.337 1.02618C105.351 1.65679 109.323 2.52681 113.232 3.63155C120.983 5.79921 128.31 8.70159 135.398 11.7551C142.486 14.8086 149.368 18.0079 156.354 20.9286C159.851 22.385 163.374 23.7736 166.966 25.0398C170.557 26.306 174.237 27.4446 177.999 28.4997Z" fill="#FD863D"/>
<path d="M21.8126 63.9172C21.6894 65.2016 21.2153 66.2021 20.3823 66.9238C19.5493 67.6455 18.4465 68.0024 17.066 68.0024C16.1684 68.0208 15.2842 67.784 14.5173 67.3198C13.7727 66.8523 13.1818 66.1785 12.8172 65.3814C12.4 64.4621 12.1873 63.4641 12.1938 62.4556V61.3327C12.1723 60.3 12.3798 59.2752 12.8015 58.3313C13.1688 57.5059 13.7753 56.8083 14.5435 56.3278C15.3322 55.852 16.2407 55.6089 17.163 55.6269C18.4989 55.6269 19.5738 55.9864 20.3876 56.7055C21.2013 57.4246 21.6755 58.4433 21.8099 59.7616H19.7143C19.6148 58.8932 19.3616 58.2687 18.9547 57.8884C18.5478 57.508 17.9505 57.3161 17.163 57.3126C16.7581 57.2945 16.3549 57.3761 15.9894 57.5502C15.6238 57.7243 15.3071 57.9854 15.0674 58.3104C14.5766 58.9757 14.326 59.9509 14.3156 61.2363V62.3045C14.3156 63.6071 14.5496 64.5998 15.0176 65.2824C15.242 65.6162 15.5498 65.8862 15.9107 66.0662C16.2716 66.2461 16.6733 66.3298 17.0765 66.3089C17.9025 66.3089 18.5233 66.1248 18.939 65.7566C19.3529 65.3866 19.6174 64.7717 19.7248 63.912L21.8126 63.9172Z" fill="#000094"/>
<path d="M33.3514 62.1298C33.3747 63.1971 33.1646 64.2567 32.7358 65.2354C32.3684 66.0777 31.7563 66.7917 30.9781 67.2858C30.1828 67.7547 29.2753 68.0021 28.3508 68.0021C27.4262 68.0021 26.5187 67.7547 25.7234 67.2858C24.9434 66.7938 24.3251 66.0856 23.9448 65.2484C23.5092 64.2896 23.2919 63.2469 23.3083 62.1949V61.5175C23.2866 60.4473 23.5012 59.3854 23.9369 58.4067C24.3099 57.5604 24.926 56.8425 25.7077 56.3433C26.5021 55.88 27.4063 55.6357 28.3272 55.6357C29.2481 55.6357 30.1523 55.88 30.9467 56.3433C31.7245 56.8331 32.3388 57.5411 32.7122 58.378C33.1463 59.3491 33.3617 60.4028 33.3435 61.4654L33.3514 62.1298ZM31.2558 61.5019C31.2558 60.1679 31.0026 59.1458 30.4962 58.4354C30.2463 58.1042 29.9223 57.8355 29.55 57.6504C29.1776 57.4653 28.7671 57.3689 28.3508 57.3689C27.9345 57.3689 27.5239 57.4653 27.1516 57.6504C26.7792 57.8355 26.4553 58.1042 26.2054 58.4354C25.6937 59.144 25.4318 60.1462 25.4196 61.442V62.135C25.4196 63.4585 25.6815 64.4815 26.2054 65.2041C26.444 65.5513 26.767 65.8328 27.1444 66.0223C27.5218 66.2118 27.9414 66.3032 28.3639 66.2879C28.783 66.3069 29.2 66.2196 29.5758 66.034C29.9515 65.8485 30.2737 65.571 30.5119 65.2276C31.0148 64.5328 31.2654 63.5019 31.2637 62.135L31.2558 61.5019Z" fill="#000094"/>
<path d="M45.0501 67.8363H42.9545L37.5584 59.2959V67.8363H35.4628V55.7969H37.5584L42.9702 64.3711V55.7969H45.0658L45.0501 67.8363Z" fill="#000094"/>
<path d="M53.8621 64.7358C53.8747 64.5019 53.8304 64.2684 53.7328 64.0551C53.6352 63.8419 53.4872 63.6553 53.3015 63.5113C52.926 63.2247 52.2511 62.9355 51.2766 62.6437C50.4615 62.4197 49.6788 62.0922 48.9479 61.6693C47.8459 60.9745 47.295 60.0757 47.295 58.9727C47.2887 58.5079 47.3934 58.0482 47.6007 57.6315C47.8079 57.2148 48.1116 56.8529 48.4868 56.5758C49.2832 55.9453 50.3161 55.6309 51.5857 55.6327C52.3617 55.619 53.131 55.7765 53.8385 56.0938C54.47 56.3813 55.0081 56.8389 55.3918 57.4147C55.766 57.9769 55.9631 58.6373 55.9577 59.3114H53.8621C53.8768 59.0374 53.8312 58.7635 53.7285 58.5088C53.6258 58.2541 53.4684 58.0248 53.2674 57.8368C52.8728 57.479 52.3061 57.3053 51.5674 57.3157C51.0031 57.2786 50.4423 57.4279 49.9721 57.7404C49.7853 57.8839 49.636 58.0702 49.5371 58.2834C49.4381 58.4966 49.3924 58.7304 49.4037 58.9649C49.4041 59.1854 49.4608 59.4022 49.5685 59.5949C49.6762 59.7877 49.8313 59.9501 50.0193 60.067C50.645 60.4593 51.3293 60.7504 52.0468 60.9294C52.8429 61.1447 53.6066 61.4645 54.3179 61.8803C54.8301 62.1796 55.2609 62.5991 55.5726 63.1022C55.8461 63.5973 55.9835 64.1554 55.9708 64.7202C55.9861 65.1828 55.8886 65.6422 55.6865 66.0592C55.4844 66.4762 55.1838 66.8383 54.8103 67.1145C54.0367 67.705 52.9889 68.0012 51.6669 68.0029C50.8366 68.0121 50.0136 67.847 49.2517 67.5183C48.5697 67.2364 47.9775 66.7753 47.5386 66.1844C47.1281 65.604 46.9143 64.9086 46.9283 64.1991H49.0238C49.0075 64.4978 49.0604 64.7962 49.1785 65.0713C49.2966 65.3465 49.4767 65.5909 49.7049 65.7857C50.1607 66.1609 50.8103 66.3485 51.6591 66.3485C52.3899 66.3485 52.94 66.2026 53.3093 65.9056C53.4876 65.7677 53.6307 65.5899 53.7267 65.3866C53.8228 65.1833 53.8691 64.9603 53.8621 64.7358Z" fill="#000094"/>
<path d="M66.6662 55.7969V63.8422C66.6662 65.1223 66.255 66.1358 65.4324 66.8827C64.6099 67.6296 63.5132 68.003 62.1423 68.003C60.7575 68.003 59.6573 67.6348 58.8418 66.8983C58.0262 66.1619 57.6194 65.1406 57.6211 63.8344V55.7969H59.7167V63.8527C59.7167 64.6577 59.921 65.27 60.3297 65.6946C60.7383 66.1193 61.346 66.333 62.1423 66.333C63.7612 66.333 64.5706 65.4836 64.5706 63.7849V55.7969H66.6662Z" fill="#000094"/>
<path d="M71.0145 66.1662H76.5155V67.8363H68.9189V55.7969H71.0145V66.1662Z" fill="#000094"/>
<path d="M85.1651 57.4852H81.3904V67.8363H79.2948V57.4852H75.562V55.7969H85.1651V57.4852Z" fill="#000094"/>
<path d="M88.9712 67.8363H86.8756V55.7969H88.9712V67.8363Z" fill="#000094"/>
<path d="M101.16 67.8363H99.064L93.6679 59.2959V67.8363H91.5723V55.7969H93.6679L99.0824 64.3711V55.7969H101.178L101.16 67.8363Z" fill="#000094"/>
<path d="M112.924 66.2757C112.45 66.8666 111.82 67.3135 111.103 67.5654C110.256 67.8692 109.361 68.0175 108.46 68.0031C107.516 68.0208 106.586 67.783 105.767 67.3153C104.983 66.8539 104.354 66.171 103.96 65.3534C103.517 64.421 103.292 63.4014 103.3 62.3703V61.4297C103.3 59.6077 103.736 58.1869 104.61 57.1674C105.483 56.1478 106.705 55.6363 108.277 55.6328C109.623 55.6328 110.693 55.9646 111.486 56.6281C112.272 57.2924 112.754 58.2486 112.916 59.494H110.854C110.62 58.0419 109.775 57.3167 108.319 57.3185C107.904 57.2955 107.49 57.3763 107.114 57.5533C106.738 57.7303 106.413 57.998 106.168 58.332C105.679 59.0059 105.426 59.9959 105.408 61.3021V62.227C105.408 63.5279 105.684 64.5371 106.236 65.2544C106.502 65.6063 106.85 65.8884 107.251 66.0764C107.651 66.2643 108.091 66.3524 108.534 66.333C109.611 66.333 110.376 66.0899 110.828 65.6035V63.2587H108.334V61.6694H112.924V66.2757Z" fill="#000094"/>
<path d="M119.475 67.8363V55.7969H123.624C124.992 55.7969 126.034 56.0696 126.75 56.615C127.466 57.1603 127.824 57.9741 127.824 59.0562C127.829 59.5861 127.672 60.1051 127.373 60.5438C127.048 61.0069 126.592 61.3641 126.063 61.5704C126.67 61.7159 127.207 62.068 127.58 62.5656C127.941 63.0803 128.124 63.6972 128.104 64.3242C128.104 65.4515 127.739 66.3199 127.009 66.9296C126.279 67.5392 125.231 67.8423 123.865 67.8389L119.475 67.8363ZM121.571 60.8669H123.632C124.18 60.8987 124.722 60.7424 125.167 60.424C125.352 60.2727 125.498 60.0805 125.594 59.8628C125.69 59.6452 125.733 59.4082 125.72 59.1708C125.72 58.5768 125.545 58.1469 125.196 57.8812C124.853 57.6206 124.324 57.4852 123.604 57.4852H121.558L121.571 60.8669ZM121.571 62.4041V66.1662H123.907C124.465 66.2 125.016 66.0263 125.453 65.679C125.641 65.5084 125.789 65.2983 125.885 65.064C125.982 64.8297 126.025 64.5771 126.011 64.3242C126.011 63.0719 125.368 62.4319 124.083 62.4041H121.571Z" fill="#000094"/>
<path d="M134.666 63.2065H132.308V67.8363H130.213V55.7969H134.469C135.866 55.7969 136.944 56.1086 137.702 56.7322C138.46 57.3558 138.839 58.2581 138.841 59.4392C138.867 60.1589 138.661 60.868 138.254 61.4635C137.839 62.0253 137.274 62.4595 136.622 62.7167L139.339 67.7294V67.8363H137.086L134.666 63.2065ZM132.308 61.5209H134.469C135.071 61.5562 135.663 61.3656 136.13 60.9868C136.332 60.8023 136.49 60.5759 136.593 60.3238C136.697 60.0716 136.744 59.7998 136.73 59.5278C136.747 59.2536 136.707 58.9788 136.612 58.7209C136.517 58.463 136.369 58.2276 136.177 58.0297C135.809 57.6823 135.259 57.5008 134.527 57.4852H132.308V61.5209Z" fill="#000094"/>
<path d="M143.061 67.8363H140.966V55.7969H143.061V67.8363Z" fill="#000094"/>
<path d="M154.883 63.9171C154.762 65.2007 154.286 66.2029 153.453 66.9237C152.62 67.6446 151.514 68.0041 150.136 68.0024C149.239 68.0208 148.355 67.784 147.588 67.3198C146.844 66.8516 146.253 66.178 145.888 65.3814C145.471 64.4618 145.259 63.464 145.264 62.4555V61.3326C145.243 60.2999 145.45 59.2752 145.872 58.3312C146.239 57.5059 146.846 56.8083 147.614 56.3277C148.403 55.8522 149.311 55.6092 150.233 55.6269C151.569 55.6269 152.645 55.9864 153.461 56.7055C154.276 57.4246 154.749 58.4433 154.88 59.7616H152.785C152.683 58.8966 152.431 58.2713 152.023 57.8883C151.614 57.5053 151.019 57.3126 150.231 57.3126C149.826 57.2938 149.422 57.3751 149.057 57.5492C148.691 57.7234 148.374 57.9849 148.135 58.3104C147.643 58.9748 147.394 59.9518 147.381 61.2362V62.3044C147.381 63.6071 147.616 64.5998 148.085 65.2824C148.309 65.6163 148.616 65.8865 148.977 66.0665C149.337 66.2465 149.739 66.33 150.142 66.3089C150.968 66.3089 151.589 66.1248 152.004 65.7565C152.421 65.3866 152.683 64.7717 152.79 63.9119L154.883 63.9171Z" fill="#000094"/>
<path d="M163.09 64.7358C163.103 64.5019 163.058 64.2684 162.961 64.0552C162.863 63.842 162.715 63.6554 162.529 63.5113C162.154 63.2247 161.479 62.9355 160.504 62.6437C159.689 62.4197 158.907 62.0922 158.176 61.6693C157.072 60.9745 156.521 60.0757 156.523 58.9728C156.516 58.5079 156.621 58.0482 156.828 57.6315C157.036 57.2148 157.339 56.853 157.715 56.5758C158.511 55.9453 159.543 55.6309 160.811 55.6327C161.588 55.6188 162.358 55.7763 163.066 56.0938C163.698 56.3814 164.236 56.8389 164.62 57.4147C164.994 57.9769 165.191 58.6373 165.185 59.3114H163.09C163.105 59.0374 163.059 58.7635 162.956 58.5088C162.854 58.2541 162.696 58.0248 162.495 57.8368C162.1 57.4799 161.531 57.3157 160.795 57.3157C160.233 57.2798 159.674 57.4291 159.205 57.7404C159.018 57.884 158.869 58.0702 158.77 58.2834C158.671 58.4966 158.625 58.7304 158.637 58.9649C158.637 59.1854 158.694 59.4022 158.802 59.595C158.909 59.7877 159.064 59.9501 159.252 60.067C159.878 60.4593 160.562 60.7504 161.28 60.9294C162.075 61.1442 162.838 61.464 163.548 61.8803C164.062 62.1789 164.494 62.5985 164.806 63.1023C165.079 63.5973 165.217 64.1554 165.204 64.7202C165.219 65.1828 165.122 65.6423 164.92 66.0592C164.717 66.4762 164.417 66.8383 164.043 67.1145C163.271 67.7051 162.224 68.0012 160.9 68.0029C160.07 68.0121 159.247 67.847 158.485 67.5183C157.803 67.2364 157.211 66.7753 156.772 66.1844C156.361 65.604 156.147 64.9086 156.161 64.1991H158.257C158.241 64.4978 158.293 64.7962 158.412 65.0714C158.53 65.3465 158.71 65.5909 158.938 65.7858C159.394 66.1609 160.043 66.3485 160.892 66.3485C161.623 66.3485 162.173 66.2026 162.542 65.9056C162.72 65.7672 162.862 65.5891 162.957 65.3859C163.052 65.1826 163.098 64.9599 163.09 64.7358Z" fill="#000094"/>
</g>
<defs>
<clipPath id="clip0">
<rect width="178" height="68" fill="white"/>
</clipPath>
</defs>
</svg>
