<svg width="24" height="24" viewBox="0 0 24 24" fill="none" xmlns="http://www.w3.org/2000/svg">
<path d="M6.79531 9.93115C7.57875 11.348 8.48169 12.7078 9.65401 13.9478C10.8301 15.1954 12.2927 16.3308 14.1858 17.3007C14.3262 17.3692 14.459 17.3692 14.5785 17.3217C14.7587 17.2532 14.9427 17.1029 15.1229 16.9223C15.2633 16.7815 15.4378 16.5571 15.6199 16.3118C16.3483 15.3514 17.2494 14.1589 18.5222 14.7561C18.5507 14.7694 18.5716 14.7846 18.6 14.796L22.8454 17.2437C22.8587 17.2513 22.8738 17.2646 22.8852 17.2722C23.4448 17.6583 23.6762 18.2536 23.6819 18.9287C23.6819 19.6153 23.4296 20.3874 23.0597 21.0397C22.5703 21.9013 21.8495 22.4718 21.0186 22.8484C20.2276 23.2135 19.3474 23.4094 18.5014 23.5349C17.1735 23.7308 15.9291 23.6053 14.6563 23.2135C13.4119 22.8275 12.158 22.1903 10.7884 21.3421L10.6878 21.2775C10.06 20.8838 9.38085 20.4635 8.71502 19.9671C6.27934 18.1223 3.79623 15.4579 2.17814 12.5252C0.821817 10.0643 0.0820074 7.40742 0.486057 4.87609C0.709897 3.48775 1.30364 2.22494 2.33938 1.39194C3.24232 0.661633 4.45827 0.262249 6.03273 0.402984C6.21294 0.416297 6.37418 0.520897 6.45955 0.676847L9.18167 5.29069C9.58003 5.80798 9.62935 6.32148 9.4112 6.83497C9.23099 7.25528 8.86677 7.64325 8.36977 8.0046C8.22371 8.13012 8.04919 8.25754 7.86519 8.39067C7.25626 8.83379 6.56388 9.34539 6.801 9.94636L6.79531 9.93115Z" fill="#110B11"/>
</svg>
